<svg xmlns="http://www.w3.org/2000/svg" xmlns:xlink="http://www.w3.org/1999/xlink" width="250px" height="39px" viewBox="0 0 250 39" version="1.1">
    <title>01 - Brand/Logos/Workspace/Horizontal@2x</title>
    <g id="Page-4" stroke="none" stroke-width="1" fill="none" fill-rule="evenodd">
        <g id="01---Brand/Logos/Workspace/Horizontal" fill="#003D48">
            <path d="M201.073522,14.9486266 C202.868797,14.9486266 204.292102,15.5424524 205.344543,16.7295522 C206.396431,17.9166519 206.922927,19.8228548 206.922927,22.448161 C206.922927,25.0353872 206.334068,26.960906 205.156351,28.2252693 C203.978633,29.4896327 202.241306,30.1220903 199.94437,30.1220903 C199.500105,30.1220903 199.094471,30.0928405 198.728021,30.0348928 C198.361019,29.9769451 197.955937,29.8996815 197.512223,29.803102 L197.512223,34.6679483 C197.512223,35.0923461 197.367078,35.4499661 197.077891,35.7391526 C196.788153,36.0288911 196.440467,36.1734843 196.035385,36.1734843 C195.629751,36.1734843 195.282617,36.0288911 194.992878,35.7391526 C194.70314,35.4499661 194.558547,35.0923461 194.558547,34.6679483 L194.558547,16.5700581 C194.558547,16.1456602 194.70314,15.7935591 194.992878,15.5132026 C195.282617,15.2333981 195.629751,15.0937718 196.035385,15.0937718 C196.440467,15.0937718 196.788153,15.2333981 197.077891,15.5132026 C197.367078,15.7935591 197.512223,16.1456602 197.512223,16.5700581 L197.512223,16.6572555 C198.303071,15.5181696 199.490723,14.9486266 201.073522,14.9486266 Z M243.725944,14.9485162 C245.887669,14.9485162 247.461087,15.556691 248.445645,16.7730405 C249.430204,17.9888382 249.922483,19.9292578 249.922483,22.5931957 C249.922483,22.8056706 249.854602,22.9839287 249.719943,23.1290739 C249.584179,23.2731153 249.410888,23.3459638 249.198413,23.3459638 L240.395884,23.3459638 C240.433964,24.1379155 240.549859,24.7985191 240.743018,25.3294303 C240.936177,25.8608934 241.211015,26.2897062 241.568635,26.6180765 C241.925703,26.9464467 242.36445,27.1782374 242.885979,27.3128968 C243.407508,27.4481081 244.015131,27.5159897 244.709951,27.5159897 C245.212164,27.5159897 245.699477,27.4773579 246.17244,27.4000943 C246.645404,27.3228307 247.103467,27.1876194 247.548284,26.9944605 C247.895418,26.8598011 248.223788,26.8691831 248.532291,27.0231584 C248.840793,27.1782374 249.05382,27.4194102 249.169715,27.7472285 C249.285059,28.0761506 249.275125,28.38962 249.140466,28.6881886 C249.005254,28.9878609 248.773464,29.2240667 248.445645,29.3979097 C247.982616,29.6490164 247.383823,29.8322414 246.650371,29.9481368 C245.916367,30.0640322 245.182915,30.1219799 244.449462,30.1219799 C241.959368,30.1219799 240.154159,29.5187721 239.034941,28.3118045 C237.915171,27.1059408 237.355562,25.180422 237.355562,22.5352481 C237.355562,19.9485737 237.876539,18.0374039 238.919046,16.8017384 C239.961552,15.5666249 241.563668,14.9485162 243.725944,14.9485162 Z M146.8394,14.9485162 C149.136336,14.9485162 150.835583,15.5666249 151.935485,16.8017384 C153.035939,18.0374039 153.586166,19.9485737 153.586166,22.5352481 C153.586166,25.1224743 153.035939,27.0336442 151.935485,28.2682058 C150.835583,29.5044231 149.136336,30.1219799 146.8394,30.1219799 C144.541912,30.1219799 142.843217,29.5044231 141.743315,28.2682058 C140.642309,27.0336442 140.092634,25.1224743 140.092634,22.5352481 C140.092634,19.9485737 140.642309,18.0374039 141.743315,16.8017384 C142.843217,15.5666249 144.541912,14.9485162 146.8394,14.9485162 Z M54.8167634,8.89651509 C55.6274792,8.89651509 56.4431618,8.9792975 57.2638114,9.14320667 C58.0839092,9.30711584 58.7450647,9.54387353 59.247278,9.85237597 C59.6909917,10.1227985 59.9663811,10.4219189 60.0723426,10.7497373 C60.1783041,11.0781075 60.1446393,11.4158597 59.9707962,11.7635458 C59.7583214,12.1305479 59.4934176,12.3568198 59.1744294,12.4440172 C58.8559931,12.5306628 58.4945099,12.4975499 58.0888761,12.3424708 C57.5866628,12.1686278 57.0607186,12.0146525 56.5104915,11.8794412 C55.9608163,11.74423 55.3763725,11.6763484 54.7588158,11.6763484 C52.6743547,11.6763484 51.1632998,12.294457 50.2273067,13.5295706 C49.2907617,14.765236 48.8227652,16.7542213 48.8227652,19.4948709 C48.8227652,20.8657476 48.9386605,22.0429135 49.1704513,23.0274723 C49.4016901,24.0114792 49.7537913,24.8227468 50.2273067,25.4596194 C50.7002702,26.097044 51.31286,26.5650405 52.0661799,26.864161 C52.818948,27.1632814 53.7163093,27.3128416 54.7588158,27.3128416 C55.3763725,27.3128416 55.9608163,27.2455119 56.5104915,27.1103007 C57.0607186,26.9756413 57.5866628,26.8205622 58.0888761,26.6472711 C58.4945099,26.4927439 58.8559931,26.4585272 59.1744294,26.5457246 C59.4934176,26.6323702 59.7583214,26.8597459 59.9707962,27.226196 C60.1446393,27.5738822 60.1783041,27.9116344 60.0723426,28.2400046 C59.9663811,28.5678229 59.6909917,28.8669434 59.247278,29.1373659 C58.7450647,29.4464202 58.0839092,29.6831779 57.2638114,29.8470871 C56.4431618,30.0104444 55.6274792,30.0926749 54.8167634,30.0926749 C51.6506122,30.0926749 49.3393274,29.2383604 47.8818051,27.5297315 C46.423731,25.8216545 45.6957976,23.1433676 45.6957976,19.4948709 C45.6957976,15.8270584 46.423731,13.1438045 47.8818051,11.4445576 C49.3393274,9.74641449 51.6506122,8.89651509 54.8167634,8.89651509 Z M215.465023,14.9197632 C216.50753,14.9197632 217.394957,15.0257246 218.128961,15.2381995 C218.862413,15.4506743 219.460654,15.7933935 219.924236,16.266357 C220.387265,16.7393205 220.725018,17.3519103 220.937492,18.1046784 C221.149967,18.8579983 221.255929,19.7752274 221.255929,20.8558137 L221.255929,28.4712435 C221.255929,28.8961932 221.115751,29.2532613 220.835946,29.5424478 C220.556141,29.8321863 220.203488,29.9767795 219.779091,29.9767795 C219.354141,29.9767795 219.00204,29.8321863 218.722235,29.5424478 C218.442431,29.2532613 218.302804,28.8961932 218.302804,28.4712435 L218.302804,28.3559 C217.452905,29.5137499 216.169226,30.0926749 214.451215,30.0926749 C213.698447,30.0926749 213.013008,30.0010624 212.395452,29.8178373 C211.777343,29.6346122 211.246432,29.3454257 210.802718,28.9491739 C210.358452,28.553474 210.015733,28.0611946 209.774561,27.4723357 C209.533388,26.8840287 209.413077,26.1836896 209.413077,25.3729738 C209.413077,23.8089382 209.905357,22.6510882 210.889364,21.8977683 C211.874474,21.1450003 213.360694,20.7686163 215.349128,20.7686163 C215.908737,20.7686163 216.429714,20.802833 216.912612,20.8701627 C217.394957,20.9380443 217.857987,21.0395907 218.302804,21.1742501 L218.302804,20.6819707 C218.302804,19.5042529 218.066047,18.6692544 217.593083,18.1775269 C217.12012,17.6852475 216.294503,17.4391078 215.117337,17.4391078 C214.615124,17.4391078 214.156509,17.4821546 213.742045,17.5693521 C213.326478,17.6559977 212.906495,17.767478 212.482097,17.9021374 C212.077015,18.0373487 211.700631,18.0522495 211.352945,17.9457361 C211.005259,17.8397746 210.77402,17.593635 210.658125,17.207317 C210.542229,16.821551 210.590243,16.4832469 210.802718,16.1935085 C211.015193,15.9043219 211.352945,15.6725312 211.816527,15.4986881 C212.376136,15.2867652 212.983759,15.1366531 213.640499,15.0500075 C214.296688,14.96281 214.904862,14.9197632 215.465023,14.9197632 Z M231.245613,14.9197632 C231.805222,14.9197632 232.384699,14.9732958 232.98294,15.0792573 C233.581181,15.1852187 234.04421,15.3248451 234.373133,15.4986881 C234.739583,15.6725312 234.980755,15.9092889 235.096651,16.2084093 C235.212546,16.5075297 235.202612,16.821551 235.067953,17.1493694 C234.932742,17.4777396 234.7153,17.6995964 234.416179,17.8154918 C234.116507,17.9308353 233.77434,17.9413211 233.388022,17.8441897 C233.059652,17.7476102 232.731833,17.6703467 232.404015,17.612399 C232.075093,17.5544513 231.718577,17.5257534 231.332259,17.5257534 C229.942618,17.5257534 228.938191,17.9170382 228.321187,18.6985042 C227.703078,19.480522 227.394575,20.7498523 227.394575,22.506495 C227.394575,24.2631377 227.703078,25.5319161 228.321187,26.3139339 C228.938191,27.0953998 229.942618,27.4866847 231.332259,27.4866847 C231.718577,27.4866847 232.075093,27.4579868 232.404015,27.4000391 C232.731833,27.3420914 233.059652,27.2648278 233.388022,27.1682483 C233.77434,27.0716689 234.116507,27.0816028 234.416179,27.1974981 C234.7153,27.3128416 234.932742,27.5352504 235.067953,27.8630687 C235.202612,28.1919908 235.212546,28.5049083 235.096651,28.8040287 C234.980755,29.1037011 234.739583,29.3399069 234.373133,29.5137499 C234.04421,29.687593 233.581181,29.8272193 232.98294,29.9337327 C232.384699,30.0391423 231.805222,30.0926749 231.245613,30.0926749 C228.890178,30.0926749 227.157818,29.485052 226.047982,28.2681506 C224.937594,27.052353 224.382951,25.1318011 224.382951,22.506495 C224.382951,19.8811888 224.937594,17.9600851 226.047982,16.7442874 C227.157818,15.527386 228.890178,14.9197632 231.245613,14.9197632 Z M186.190404,14.9197632 C186.923856,14.9197632 187.623644,14.9732958 188.289766,15.0787054 C188.955888,15.1852187 189.510531,15.3640287 189.954796,15.6145835 C190.282615,15.8077425 190.509438,16.0445001 190.635268,16.3243047 C190.760545,16.6041092 190.755578,16.9081966 190.620919,17.2360149 C190.46584,17.5837011 190.229634,17.8055579 189.911197,17.9021374 C189.592761,17.9987169 189.21141,17.979401 188.767145,17.8441897 C188.362063,17.7282943 187.94208,17.6272998 187.507748,17.5401023 C187.073416,17.4534567 186.614802,17.409858 186.132456,17.409858 C185.167214,17.409858 184.467426,17.5450693 184.033095,17.8149399 C183.598763,18.0859143 183.381873,18.5009302 183.381873,19.0605392 C183.381873,19.5815165 183.598763,20.0114332 184.033095,20.3491854 C184.467426,20.6869376 185.282557,21.0103409 186.479591,21.3193952 C187.386886,21.5506341 188.149588,21.8067077 188.767145,22.0865122 C189.385253,22.3663168 189.881948,22.6847531 190.258884,23.0423731 C190.635268,23.3994412 190.900171,23.8001081 191.054698,24.2432699 C191.209226,24.6880874 191.286489,25.1897488 191.286489,25.7493579 C191.286489,27.1974981 190.818493,28.2830515 189.881948,29.0065697 C188.945955,29.7311917 187.474083,30.0926749 185.466334,30.0926749 C183.671059,30.0926749 182.223471,29.8415683 181.123017,29.3399069 C180.794647,29.1853797 180.558441,28.9541408 180.413296,28.6450865 C180.268703,28.3360322 180.273118,28.0082139 180.428197,27.6605277 C180.582172,27.3128416 180.828312,27.0865697 181.166064,26.9800563 C181.503816,26.8740949 181.923799,26.8983777 182.426012,27.052353 C182.85041,27.1875642 183.318406,27.3128416 183.830554,27.428737 C184.341597,27.5446324 184.887409,27.6025801 185.466334,27.6025801 C186.489525,27.6025801 187.227944,27.4579868 187.681591,27.1682483 C188.134687,26.8790618 188.362063,26.4248623 188.362063,25.8073055 C188.362063,25.5561989 188.318464,25.3343421 188.231818,25.1411831 C188.145173,24.948576 187.975745,24.7647991 187.72519,24.590956 C187.474083,24.4176648 187.135779,24.2487887 186.711381,24.0843277 C186.286432,23.9204185 185.727375,23.7515424 185.032002,23.5776993 C184.221287,23.3657764 183.530881,23.1339856 182.96189,22.882879 C182.392347,22.6317723 181.919384,22.3321 181.543,21.9855177 C181.166064,21.6378316 180.891226,21.2321978 180.717935,20.7686163 C180.544092,20.3055867 180.456895,19.7553596 180.456895,19.1184869 C180.456895,17.786242 180.914957,16.7542213 181.832738,16.0196654 C182.748863,15.2867652 184.201971,14.9197632 186.190404,14.9197632 Z M106.851302,15.0936614 C107.237068,15.0936614 107.555504,15.2189388 107.806611,15.4700454 C108.057166,15.7206002 108.182995,16.0197206 108.182995,16.3674067 C108.182995,16.5224858 108.143811,16.681428 108.0671,16.8453372 C107.989836,17.0092463 107.903191,17.1687404 107.806611,17.3232676 L104.100167,22.2162598 L108.095798,27.6026352 C108.269641,27.8151101 108.385536,28.008269 108.443484,28.1815602 C108.501431,28.3554033 108.530681,28.4911664 108.530681,28.5866421 C108.530681,29.0314596 108.390503,29.3736269 108.110698,29.6153515 C107.830894,29.8559724 107.526807,29.9768347 107.198436,29.9768347 C106.889382,29.9768347 106.619511,29.914472 106.387721,29.7886427 C106.15593,29.6639172 105.934073,29.4464754 105.721598,29.1374211 L102.420788,24.4464179 L99.1194251,29.1374211 C98.7331072,29.6975821 98.2606956,29.9768347 97.7010865,29.9768347 C97.3721644,29.9768347 97.0785628,29.8559724 96.8175223,29.6153515 C96.5570336,29.3736269 96.4267893,29.0695395 96.4267893,28.7025375 C96.4267893,28.5485622 96.4654211,28.38962 96.5426847,28.225159 C96.6193964,28.0612498 96.7065938,27.9017557 96.8031733,27.7472285 L100.828054,22.3321552 L97.0923599,17.3232676 C96.879885,17.0335292 96.7739235,16.7344087 96.7739235,16.4253544 C96.7739235,16.0589043 96.9091348,15.744883 97.1795573,15.4843944 C97.449428,15.2239057 97.7777982,15.0936614 98.1641161,15.0936614 C98.4345387,15.0936614 98.6850934,15.156576 98.9168842,15.2818534 C99.1486749,15.4076827 99.3699799,15.6245726 99.5830066,15.933075 L102.536683,20.102549 L105.489807,15.933075 C105.702282,15.6433366 105.910342,15.4314136 106.112883,15.2962024 C106.315424,15.161543 106.561564,15.0936614 106.851302,15.0936614 Z M138.26844,9.01246565 C138.692838,9.01246565 139.050458,9.15319575 139.339645,9.4324484 C139.629383,9.71225295 139.773976,10.0549721 139.773976,10.4606059 C139.773976,10.5958172 139.754661,10.7404105 139.716029,10.8949376 L134.880432,28.4712986 C134.745221,28.9343283 134.508463,29.3013303 134.171263,29.5717528 C133.832959,29.8416235 133.412976,29.9768347 132.911315,29.9768347 C132.409101,29.9768347 131.989119,29.8416235 131.651918,29.5717528 C131.314166,29.3013303 131.077408,28.9343283 130.942197,28.4712986 L127.901875,17.439163 C127.843928,17.2266881 127.781013,16.9948974 127.713683,16.7437907 C127.645802,16.493236 127.592821,16.2515114 127.554741,16.0197206 C127.515557,16.2327473 127.462577,16.4689531 127.395247,16.7294418 C127.327365,16.9899304 127.265003,17.2266881 127.207055,17.439163 L124.166733,28.4712986 C124.031522,28.9343283 123.799731,29.3013303 123.471913,29.5717528 C123.142991,29.8416235 122.718593,29.9768347 122.197615,29.9768347 C121.695402,29.9768347 121.275419,29.8416235 120.937667,29.5717528 C120.599915,29.3013303 120.363157,28.9343283 120.228498,28.4712986 L115.508797,10.8949376 C115.469613,10.7404105 115.450849,10.6051992 115.450849,10.4893038 C115.450849,10.0842219 115.595442,9.73653579 115.885181,9.44679736 C116.174367,9.15705892 116.540817,9.01246565 116.985635,9.01246565 C117.371401,9.01246565 117.709153,9.12394596 117.998892,9.34580282 C118.28863,9.56765967 118.491171,9.91037884 118.607066,10.3734085 L121.907877,23.8961909 C121.985141,24.2245611 122.057437,24.5578982 122.125319,24.8950986 C122.192648,25.2328508 122.255563,25.5855039 122.313511,25.951954 C122.390222,25.5855039 122.462519,25.2328508 122.530953,24.8950986 C122.598282,24.5578982 122.679961,24.2245611 122.77654,23.8961909 L125.643571,13.5588755 C125.778231,13.07653 126.029337,12.6951791 126.396339,12.4148227 C126.762789,12.1350181 127.167871,11.9948399 127.612689,11.9948399 C128.056402,11.9948399 128.461484,12.1350181 128.828486,12.4148227 C129.194936,12.6951791 129.446043,13.07653 129.581254,13.5588755 L132.390337,23.8961909 C132.486917,24.2245611 132.573563,24.5617614 132.650826,24.9094475 C132.72809,25.2571337 132.805353,25.6241357 132.882617,26.0104536 C132.998512,25.2764496 133.143105,24.5722472 133.316949,23.8961909 L136.704957,10.3160126 C136.91688,9.44679736 137.438409,9.01246565 138.26844,9.01246565 Z M64.4011452,15.0936614 C64.806779,15.0936614 65.1539132,15.2382547 65.4436516,15.5274412 C65.7333901,15.8171796 65.8779833,16.1747997 65.8779833,16.5991975 L65.8779833,28.4999966 C65.8779833,28.9056304 65.7333901,29.2527646 65.4436516,29.542503 C65.1539132,29.8322414 64.806779,29.9768347 64.4011452,29.9768347 C63.9960632,29.9768347 63.6483771,29.8322414 63.3586387,29.542503 C63.0689003,29.2527646 62.924307,28.9056304 62.924307,28.4999966 L62.924307,16.5991975 C62.924307,16.1747997 63.0689003,15.8171796 63.3586387,15.5274412 C63.6483771,15.2382547 63.9960632,15.0936614 64.4011452,15.0936614 Z M168.845834,9.01230009 C169.251468,9.01230009 169.598602,9.15744524 169.88834,9.44718367 C170.177527,9.73637022 170.322672,10.0939902 170.322672,10.518388 L170.322672,21.6084714 L175.968984,15.5278275 C176.104195,15.3733004 176.263138,15.2629238 176.446915,15.1950423 C176.63014,15.1277126 176.80895,15.0934958 176.982241,15.0934958 C177.368559,15.0934958 177.686995,15.2237402 177.938102,15.4842288 C178.188657,15.7447174 178.314486,16.0592906 178.314486,16.4257407 C178.314486,16.754111 178.19859,17.0432975 177.967352,17.2938523 L173.218401,22.1879483 L178.025299,27.6604174 C178.256538,27.9308399 178.372433,28.2299603 178.372433,28.5583306 C178.372433,28.9446485 178.242189,29.2779856 177.9817,29.5572383 C177.72066,29.8364909 177.377941,29.9766692 176.953543,29.9766692 C176.7797,29.9766692 176.586541,29.9430043 176.374618,29.8756746 C176.162143,29.807793 175.978918,29.6775487 175.824391,29.4849416 L170.322672,22.9407163 L170.322672,28.5003829 C170.322672,28.9054648 170.177527,29.2531509 169.88834,29.5423375 C169.598602,29.8326278 169.251468,29.9766692 168.845834,29.9766692 C168.4402,29.9766692 168.093066,29.8326278 167.803327,29.5423375 C167.513589,29.2531509 167.368996,28.9054648 167.368996,28.5003829 L167.368996,10.518388 C167.368996,10.0939902 167.513589,9.73637022 167.803327,9.44718367 C168.093066,9.15744524 168.4402,9.01230009 168.845834,9.01230009 Z M92.1989813,15.0936614 C92.6046151,15.0936614 92.9517494,15.2382547 93.2414878,15.5274412 C93.5312262,15.8171796 93.6758195,16.1747997 93.6758195,16.5991975 L93.6758195,28.4999966 C93.6758195,28.9056304 93.5312262,29.2527646 93.2414878,29.542503 C92.9517494,29.8322414 92.6046151,29.9768347 92.1989813,29.9768347 C91.7938994,29.9768347 91.4462133,29.8322414 91.1564748,29.542503 C90.8667364,29.2527646 90.7221431,28.9056304 90.7221431,28.4999966 L90.7221431,16.5991975 C90.7221431,16.1747997 90.8667364,15.8171796 91.1564748,15.5274412 C91.4462133,15.2382547 91.7938994,15.0936614 92.1989813,15.0936614 Z M163.19908,15.0064639 C163.797321,15.0064639 164.270836,15.1129773 164.617971,15.3249003 C164.965657,15.5373751 165.1395,15.8850612 165.1395,16.3674067 C165.1395,16.7730405 165.023604,17.0964438 164.791814,17.3376166 C164.560575,17.5793412 164.231653,17.6996516 163.807255,17.6996516 C163.614096,17.6996516 163.425904,17.6853027 163.242679,17.6560529 C163.058902,17.627355 162.851946,17.6124542 162.620155,17.6124542 C162.002047,17.6124542 161.451819,17.7189675 160.969474,17.9308905 C160.487128,18.1439172 160.110744,18.4430377 159.840322,18.8288037 L159.840322,28.4999966 C159.840322,28.9056304 159.695729,29.2527646 159.40599,29.542503 C159.116252,29.8322414 158.769118,29.9768347 158.363484,29.9768347 C157.958402,29.9768347 157.610716,29.8322414 157.320977,29.542503 C157.031239,29.2527646 156.886646,28.9056304 156.886646,28.4999966 L156.886646,16.5704996 C156.886646,16.1455499 157.031239,15.7934487 157.320977,15.5130923 C157.610716,15.2338396 157.958402,15.0936614 158.363484,15.0936614 C158.769118,15.0936614 159.116252,15.2338396 159.40599,15.5130923 C159.695729,15.7934487 159.840322,16.1455499 159.840322,16.5704996 L159.840322,16.7437907 C160.206772,16.1841817 160.670354,15.7548169 161.229963,15.4556965 C161.789572,15.156576 162.446312,15.0064639 163.19908,15.0064639 Z M72.0167956,9.01241046 C72.4224294,9.01241046 72.7695637,9.15700374 73.0593021,9.44674217 C73.3484886,9.7364806 73.4936338,10.0941006 73.4936338,10.5184984 L73.4936338,15.2668974 L76.4180604,15.2668974 C76.7845105,15.2668974 77.0885979,15.3827928 77.3303225,15.6145835 C77.5714953,15.8463742 77.6923576,16.1460466 77.6923576,16.5124967 C77.6923576,16.8794987 77.5714953,17.1780673 77.3303225,17.409858 C77.0885979,17.6416487 76.7845105,17.7575441 76.4180604,17.7575441 L73.4936338,17.7575441 L73.4936338,25.0832354 C73.4936338,25.894503 73.6332601,26.4783949 73.9136166,26.8354631 C74.1928692,27.1925312 74.6807335,27.3707893 75.3755539,27.3707893 C75.5102133,27.3707893 75.6167266,27.3663742 75.6939902,27.3564404 C75.7712538,27.3465065 75.8678333,27.3420914 75.9837287,27.3420914 C76.2541512,27.3420914 76.5052578,27.4430859 76.7364967,27.6456269 C76.9682874,27.8487197 77.0841828,28.1434251 77.0841828,28.5291911 C77.0841828,29.0694843 76.8816419,29.4464202 76.476008,29.6583432 C76.0709261,29.8708181 75.568161,29.9767795 74.970472,29.9767795 C73.4064363,29.9767795 72.2772843,29.6103294 71.5824639,28.8768773 C70.8870917,28.1434251 70.5399575,26.9944053 70.5399575,25.4309215 L70.5399575,17.7575441 L69.5553987,17.7575441 C69.1883967,17.7575441 68.8848612,17.6416487 68.6436884,17.409858 C68.4019638,17.1780673 68.2811015,16.8794987 68.2811015,16.5124967 C68.2811015,16.1460466 68.4019638,15.8463742 68.6436884,15.6145835 C68.8848612,15.3827928 69.1883967,15.2668974 69.5553987,15.2668974 L70.5399575,15.2668974 L70.5399575,10.5184984 C70.5399575,10.0941006 70.6845507,9.7364806 70.9742892,9.44674217 C71.2640276,9.15700374 71.6111618,9.01241046 72.0167956,9.01241046 Z M86.5522828,15.0064639 C87.1505237,15.0064639 87.6240391,15.1129773 87.9711733,15.3249003 C88.3188594,15.5373751 88.4927025,15.8850612 88.4927025,16.3674067 C88.4927025,16.7730405 88.3768071,17.0964438 88.1450164,17.3376166 C87.9137775,17.5793412 87.5848554,17.6996516 87.1604576,17.6996516 C86.9672986,17.6996516 86.7791066,17.6853027 86.5958816,17.6560529 C86.4121046,17.627355 86.2051486,17.6124542 85.9733579,17.6124542 C85.3552492,17.6124542 84.8050221,17.7189675 84.3226766,17.9308905 C83.8403311,18.1439172 83.4639471,18.4430377 83.1935246,18.8288037 L83.1935246,28.4999966 C83.1935246,28.9056304 83.0489313,29.2527646 82.7591929,29.542503 C82.4694544,29.8322414 82.1223202,29.9768347 81.7166864,29.9768347 C81.3116045,29.9768347 80.9639184,29.8322414 80.6741799,29.542503 C80.3844415,29.2527646 80.2398482,28.9056304 80.2398482,28.4999966 L80.2398482,16.5704996 C80.2398482,16.1455499 80.3844415,15.7934487 80.6741799,15.5130923 C80.9639184,15.2338396 81.3116045,15.0936614 81.7166864,15.0936614 C82.1223202,15.0936614 82.4694544,15.2338396 82.7591929,15.5130923 C83.0489313,15.7934487 83.1935246,16.1455499 83.1935246,16.5704996 L83.1935246,16.7437907 C83.5599747,16.1841817 84.0235562,15.7548169 84.5831653,15.4556965 C85.1427744,15.156576 85.7995148,15.0064639 86.5522828,15.0064639 Z M215.870105,23.0274723 C214.63444,23.0274723 213.737078,23.2112492 213.176918,23.5776993 C212.617308,23.9441495 212.337504,24.5528761 212.337504,25.4016717 C212.337504,26.2703352 212.593026,26.8884438 213.105173,27.2548939 C213.616216,27.6218959 214.316003,27.805121 215.203983,27.805121 C215.995383,27.805121 216.632807,27.6748767 217.115153,27.4138362 C217.597498,27.1538994 217.99375,26.8205622 218.302804,26.4154803 L218.302804,23.3746065 C217.607432,23.1433676 216.796716,23.0274723 215.870105,23.0274723 Z M146.8394,17.5545065 C145.526471,17.5545065 144.575577,17.9502064 143.98727,18.7421581 C143.397859,19.5335579 143.103706,20.7979212 143.103706,22.5352481 C143.103706,24.2725749 143.397859,25.5369382 143.98727,26.3288899 C144.575577,27.1202897 145.526471,27.5159897 146.8394,27.5159897 C148.151777,27.5159897 149.102671,27.1202897 149.69153,26.3288899 C150.279837,25.5369382 150.574542,24.2725749 150.574542,22.5352481 C150.574542,20.7979212 150.279837,19.5335579 149.69153,18.7421581 C149.102671,17.9502064 148.151777,17.5545065 146.8394,17.5545065 Z M200.43665,17.5546168 C199.779909,17.5546168 199.196017,17.6517482 198.684974,17.8443553 C198.173379,18.0375142 197.782094,18.3366347 197.512223,18.7417166 L197.512223,27.2258097 C198.0332,27.4195206 198.680007,27.5161 199.452091,27.5161 C201.015575,27.5161 202.149694,27.1010842 202.854448,26.2705007 C203.55865,25.441021 203.911303,24.1380259 203.911303,22.3615154 C203.911303,20.7014521 203.622117,19.4851026 203.04264,18.7130187 C202.463163,17.9409348 201.595051,17.5546168 200.43665,17.5546168 Z M243.696694,17.2940178 C242.712136,17.2940178 241.940052,17.5743742 241.380443,18.1334314 C240.820282,18.6941443 240.491911,19.6974671 240.395884,21.1450555 L246.939557,21.1450555 C246.900926,19.7752826 246.616706,18.7901719 246.085795,18.1913791 C245.554332,17.5936901 244.757965,17.2940178 243.696694,17.2940178 Z M64.4011452,9.01246565 C64.9226743,9.01246565 65.366388,9.1962426 65.7333901,9.56269273 C66.0998402,9.92969474 66.2836171,10.3734085 66.2836171,10.8949376 C66.2836171,11.4159149 66.0998402,11.8601805 65.7333901,12.2266306 C65.366388,12.5936327 64.9226743,12.7768577 64.4011452,12.7768577 C63.8801679,12.7768577 63.4353504,12.5936327 63.0689003,12.2266306 C62.7024501,11.8601805 62.5192251,11.4159149 62.5192251,10.8949376 C62.5192251,10.3734085 62.7024501,9.92969474 63.0689003,9.56269273 C63.4353504,9.1962426 63.8801679,9.01246565 64.4011452,9.01246565 Z M92.1989813,9.01246565 C92.7205105,9.01246565 93.1642242,9.1962426 93.5312262,9.56269273 C93.8976763,9.92969474 94.0814533,10.3734085 94.0814533,10.8949376 C94.0814533,11.4159149 93.8976763,11.8601805 93.5312262,12.2266306 C93.1642242,12.5936327 92.7205105,12.7768577 92.1989813,12.7768577 C91.678004,12.7768577 91.2331865,12.5936327 90.8667364,12.2266306 C90.5002863,11.8601805 90.3170612,11.4159149 90.3170612,10.8949376 C90.3170612,10.3734085 90.5002863,9.92969474 90.8667364,9.56269273 C91.2331865,9.1962426 91.678004,9.01246565 92.1989813,9.01246565 Z" id="Type"/>
            <path d="M19.1105398,0.55204829 C20.3688324,0.55204829 21.3887117,1.57192757 21.3887117,2.83022018 C21.3887117,4.08796091 20.3688324,5.10784018 19.1105398,5.10784018 C11.0850612,5.10784018 4.55628859,11.6371647 4.55628859,19.6626433 C4.55628859,27.68757 11.0850612,34.2163426 19.1105398,34.2163426 C27.1360184,34.2163426 33.664791,27.68757 33.664791,19.6626433 C33.664791,18.4043507 34.6846703,17.3844714 35.9429629,17.3844714 C37.2007037,17.3844714 38.2205829,18.4043507 38.2205829,19.6626433 C38.2205829,30.1997402 29.6481886,38.7726864 19.1105398,38.7726864 C8.57289106,38.7726864 -5.51882725e-05,30.1997402 -5.51882725e-05,19.6626433 C-5.51882725e-05,9.12499454 8.57289106,0.55204829 19.1105398,0.55204829 Z M19.1105398,8.87896522 C20.3688324,8.87896522 21.3887117,9.89939638 21.3887117,11.1571371 C21.3887117,12.4154297 20.3688324,13.435309 19.1105398,13.435309 C15.6767255,13.435309 12.883647,16.2289394 12.883647,19.6622018 C12.883647,23.0960161 15.6767255,25.8890946 19.1105398,25.8890946 C22.5438022,25.8890946 25.3374326,23.0960161 25.3374326,19.6622018 C25.3374326,18.4044611 26.3573119,17.3840299 27.6156045,17.3840299 C28.8733452,17.3840299 29.8937764,18.4044611 29.8937764,19.6622018 C29.8937764,25.6081863 25.0559724,30.4454383 19.1105398,30.4454383 C13.1645553,30.4454383 8.32730325,25.6081863 8.32730325,19.6622018 C8.32730325,13.7167692 13.1645553,8.87896522 19.1105398,8.87896522 Z M19.1105398,17.1860144 C20.4781052,17.1860144 21.5868376,18.2947468 21.5868376,19.6623122 C21.5868376,21.0298776 20.4781052,22.1386099 19.1105398,22.1386099 L19.0382432,22.1386099 C17.6706778,22.1386099 16.5619454,21.0298776 16.5619454,19.6623122 C16.5619454,18.2947468 17.6706778,17.1860144 19.0382432,17.1860144 L19.1105398,17.1860144 Z" id="Logo"/>
        </g>
    </g>
</svg>
