<?xml version="1.0" encoding="UTF-8"?>
<svg width="400px" height="300px" viewBox="0 0 400 300" version="1.1" xmlns="http://www.w3.org/2000/svg" xmlns:xlink="http://www.w3.org/1999/xlink">
    <!-- Generator: Sketch 56.2 (81672) - https://sketch.com -->
    <title>All Desktops - Empty</title>
    <desc>Created with Sketch.</desc>
    <defs>
        <rect id="path-1" x="0" y="0" width="176" height="72" rx="3.2"></rect>
        <mask id="mask-2" maskContentUnits="userSpaceOnUse" maskUnits="objectBoundingBox" x="0" y="0" width="176" height="72" fill="white">
            <use xlink:href="#path-1"></use>
        </mask>
        <rect id="path-3" x="32" y="124" width="176" height="72" rx="3.2"></rect>
        <mask id="mask-4" maskContentUnits="userSpaceOnUse" maskUnits="objectBoundingBox" x="0" y="0" width="176" height="72" fill="white">
            <use xlink:href="#path-3"></use>
        </mask>
    </defs>
    <g id="All-Desktops---Empty" stroke="none" stroke-width="1" fill="none" fill-rule="evenodd">
        <rect fill="#FFFFFF" opacity="0" x="0" y="0" width="400" height="300"></rect>
        <g id="Group" transform="translate(88.000000, 15.000000)">
            <rect id="Rectangle" fill="#F0F3F6" x="0" y="0" width="240" height="232" rx="32"></rect>
            <g id="Web-Copy" transform="translate(132.066667, 33.933333)"></g>
            <g id="Group-5" transform="translate(32.000000, 20.000000)">
                <g id="Group-3">
                    <use id="Container" stroke="#CCCCCC" mask="url(#mask-2)" stroke-width="1.6" stroke-dasharray="2" transform="translate(88.000000, 36.000000) scale(-1, 1) translate(-88.000000, -36.000000) " xlink:href="#path-1"></use>
                    <g id="Group-4" transform="translate(64.000000, 20.000000)">
                        <rect id="Rectangle" fill="#DDE3E9" transform="translate(16.000000, 16.000000) scale(-1, 1) translate(-16.000000, -16.000000) " x="0" y="0" width="32" height="32" rx="16"></rect>
                        <path d="M6,26 L26,6" id="Line" stroke="#F7F9FA" stroke-width="2"></path>
                    </g>
                </g>
            </g>
            <rect id="Rectangle" fill="#C2CFDD" x="16" y="100" width="208" height="8"></rect>
            <rect id="Rectangle" fill="#C2CFDD" x="16" y="204" width="208" height="8"></rect>
            <use id="Container" stroke="#CCCCCC" mask="url(#mask-4)" stroke-width="1.6" stroke-dasharray="2" transform="translate(120.000000, 160.000000) scale(-1, 1) translate(-120.000000, -160.000000) " xlink:href="#path-3"></use>
        </g>
        <g id="Object/Warning-Sign" transform="translate(301.000000, 168.000000)">
            <path d="M41.5591079,124 L39.2467832,107.866802 C38.8938809,105.404587 36.7847393,103.576189 34.2973619,103.576189 L26.7632441,103.576189 C24.2758667,103.576189 22.1667251,105.404587 21.8138228,107.866802 L19.5014981,124 L0,124 L7.38869224,7.49366677 C7.65588956,3.28044769 11.1509696,4.32822431e-15 15.3726528,0 L46.6273472,0 C50.8490304,1.00084621e-15 54.3441104,3.28044769 54.6113078,7.49366677 L62,124 L41.5591079,124 Z M21.2013986,10.4923077 C18.8308225,10.4923077 16.9090909,12.4140393 16.9090909,14.7846154 C16.9090909,17.1551915 18.8308225,19.0769231 21.2013986,19.0769231 L40.7986014,19.0769231 C43.1691775,19.0769231 45.0909091,17.1551915 45.0909091,14.7846154 C45.0909091,12.4140393 43.1691775,10.4923077 40.7986014,10.4923077 L21.2013986,10.4923077 Z" id="Sign" fill="#FFC06D"></path>
            <path d="M18.4414389,54.5788004 L30.135724,34.4858925 C30.413533,34.008566 31.0256913,33.8468252 31.5030178,34.1246342 C31.6526857,34.2117426 31.7771677,34.3362246 31.864276,34.4858925 L43.5585611,54.5788004 C43.8363701,55.0561269 43.6746293,55.6682852 43.1973028,55.9460942 C43.0445682,56.0349874 42.8710047,56.0818182 42.694285,56.0818182 L19.305715,56.0818182 C18.7534302,56.0818182 18.305715,55.6341029 18.305715,55.0818182 C18.305715,54.9050985 18.3525458,54.731535 18.4414389,54.5788004 Z M31,52.7845455 C31.6744568,52.7845455 32.2212121,52.2924657 32.2212121,51.6854545 C32.2212121,51.0784434 31.6744568,50.5863636 31,50.5863636 C30.3255432,50.5863636 29.7787879,51.0784434 29.7787879,51.6854545 C29.7787879,52.2924657 30.3255432,52.7845455 31,52.7845455 Z M30.3493304,48.9824718 C30.3714569,49.2612656 30.6133831,49.4872727 30.8861077,49.4872727 L31.1138923,49.4872727 C31.3882198,49.4872727 31.6280889,49.2653144 31.6503675,48.9824718 L32.1271892,42.9288589 C32.1765731,42.3018928 31.699608,41.7936364 31.0833391,41.7936364 L30.9120555,41.7936364 C30.2861691,41.7936364 29.8188514,42.2984373 29.8688849,42.9288589 L30.3493304,48.9824718 Z M20.1,63.0333333 L41.9,63.0333333 C42.7284271,63.0333333 43.4,63.7049062 43.4,64.5333333 L43.4,64.6333333 C43.4,65.4617605 42.7284271,66.1333333 41.9,66.1333333 L20.1,66.1333333 C19.2715729,66.1333333 18.6,65.4617605 18.6,64.6333333 L18.6,64.5333333 C18.6,63.7049062 19.2715729,63.0333333 20.1,63.0333333 Z" id="Symbol" fill="#FF9E1B"></path>
        </g>
        <g id="humaaan-8" transform="translate(10.400000, 16.800000)">
            <g id="Head/Front/Buzz-Beard" transform="translate(72.775058, 46.495307) rotate(-21.000000) translate(-72.775058, -46.495307) translate(30.263698, 14.000000)">
                <g id="Head" stroke-width="1" transform="translate(33.789816, 19.397857)" fill="#B28B67">
                    <polygon points="5.93541961e-17 45.6788249 6.30982652 16.2691705 10.8606353 16.2691705 15.0176959 45.6788249"></polygon>
                    <path d="M22.3765554,30.8259843 C17.6902355,32.0339463 -0.278313918,22.7930631 0.661264399,9.40198736 C1.60084272,-3.98908834 20.2416831,-1.0432223 23.8677125,5.71544278 C27.4937419,12.4741079 27.0628753,29.6180223 22.3765554,30.8259843 Z"></path>
                </g>
                <path d="M47.5959725,34.6395617 C47.8017728,39.740031 49.1287468,42.2902656 51.5768945,42.2902656 C55.2621185,42.2902656 58.3909795,39.9600177 60.0198993,39.9415771 C59.9680404,40.9702175 59.8765019,41.9708485 59.7450985,42.9189268 C58.6696007,43.6940341 56.3751271,44.50558 56.3751271,45.7038916 C56.3751271,47.0819989 58.7727576,46.061649 58.8626406,46.8098892 C58.2213975,48.6554301 57.3236378,49.9255404 56.1663711,50.2238414 C54.4137118,50.675613 50.8032389,49.6658824 47.0188766,47.5241413 C46.7300212,47.1691521 46.5057671,46.7785736 46.3636454,46.349285 C45.5958185,44.0300106 45.0995073,39.2227203 44.8747118,31.927414 C43.8517079,31.1169679 42.8371465,30.939158 41.8310276,31.3939842 C40.1048529,32.174319 39.7124653,34.0697551 40.6538649,37.0802928 C40.6387938,38.7750635 40.1531356,40.1662301 39.1968903,41.2537925 C36.1842157,37.8201799 34.1161222,33.5737381 34.4510801,28.7998445 C35.3906584,15.4087688 54.0314988,18.3546349 57.6575282,25.1132999 C57.949918,25.658294 58.2159289,26.2708153 58.4554569,26.9370632 C56.1871065,26.8827345 54.5444182,26.2571513 50.7575225,28.2185984 C48.1255095,29.5818666 47.0955822,31.7221877 47.6677408,34.6395617 L47.5959725,34.6395617 Z" id="Combined-Shape" fill="#051E36"></path>
            </g>
            <g id="Bottom/Skinny-Jeans-1" transform="translate(41.000000, 130.000000)">
                <polygon id="Leg" fill="#997659" points="28.0943779 0 51.0156604 78.4583229 62.5423466 145.123706 73.161465 145.123706 61.815972 3.13810507e-29"></polygon>
                <path d="M17.7933194,0 C19.39269,40.7586917 18.7619216,62.9895896 18.4039633,66.692694 C18.046005,70.3957983 16.0138495,95.1967084 2.16613039,138.609161 C3.01486596,142.952191 4.02718741,145.123706 5.20309475,145.123706 C6.52822967,145.123706 8.3142992,144.926445 10.5613033,144.531922 C28.9003298,102.885092 38.1618256,72.1614204 40.2651731,66.692694 C42.3685207,61.2239676 48.5806445,38.9930696 57.6500702,0 L17.7933194,0 Z" id="Leg" fill="#B28B67"></path>
                <path d="M27.6023223,0 C33.5645053,26.9977239 43.8765267,70.0929489 58.5383865,129.285675 L74.3651874,129.285675 C75.5341771,68.5300028 70.5613495,28.5426065 61.9496537,0 L27.6023223,0 Z" id="Pant" fill="#E9DEC9"></path>
                <path d="M17.7133448,0 C19.2797191,40.7586917 15.2203608,80.9137229 2.64595857,129.920267 L19.5322847,129.920267 C37.9050265,88.8950024 51.0733623,48.9381215 60.0730449,0 L17.7133448,0 Z" id="Pant" fill="#F9F2E2"></path>
                <g id="Accessories/Shoe/Flat-Simple" transform="translate(0.561936, 123.691583)" fill="#E6E6E6">
                    <path d="M0,23.1522811 L0.62099591,13.1404839 C4.25683967,14.2038776 8.81080967,13.7867194 14.2829059,11.8890092 C20.1667341,16.0568059 27.5737055,18.9026932 36.5038201,20.4266711 C37.1851298,20.5429559 37.643187,21.189524 37.526917,21.8708362 C37.5193875,21.9149568 37.5094965,21.9586417 37.4972867,22.0017026 L36.6387587,25.0294931 L14.2829059,25.0294931 L1.24199182,25.0294931 L0,23.1522811 Z" id="Shoe"></path>
                </g>
                <g id="Accessories/Shoe/Flat-Simple" transform="translate(59.381244, 123.691583)" fill="#E6E6E6">
                    <path d="M0,23.1522811 L0.62099591,13.1404839 C4.25683967,14.2038776 8.81080967,13.7867194 14.2829059,11.8890092 C20.1667341,16.0568059 27.5737055,18.9026932 36.5038201,20.4266711 C37.1851298,20.5429559 37.643187,21.189524 37.526917,21.8708362 C37.5193875,21.9149568 37.5094965,21.9586417 37.4972867,22.0017026 L36.6387587,25.0294931 L14.2829059,25.0294931 L1.24199182,25.0294931 L0,23.1522811 Z" id="Shoe"></path>
                </g>
            </g>
            <g id="Body/Turtle-Neck" transform="translate(82.775058, 122.671663) rotate(-2.000000) translate(-82.775058, -122.671663) translate(2.753675, 64.242600)">
                <path d="M124.830294,57.8558826 L142.556121,75.148148 C147.713683,77.3481221 151.939571,79.7773378 155.233784,82.4357949 C155.974603,83.3293929 156.781105,85.0415727 153.295588,84.2753967 C149.810071,83.5092208 146.109372,82.8600753 145.454275,83.9935912 C144.799179,85.1271071 146.729474,86.8640561 145.518774,88.3475367 C144.711641,89.3365238 141.997189,86.1907496 137.375418,78.9102141 L118.942902,68.0428583 L124.830294,57.8558826 Z M38.1510747,42.2057846 L51.8530901,42.2572075 C41.4171987,76.0681772 35.8774928,93.771065 35.2339724,95.3658709 C33.7860516,98.9541841 36.8500468,104.419123 38.1603327,107.35594 C33.892775,109.265545 34.3474879,102.193499 28.9640787,104.698052 C24.0503524,106.984092 20.3124931,111.126244 14.6353924,107.623298 C13.9374262,107.192632 13.172569,105.571095 15.0205607,104.303949 C19.624582,101.147027 26.2592556,95.6218448 27.1557045,93.8031883 C28.3781727,91.3231252 32.0432961,74.1239907 38.1510747,42.2057846 Z" id="Skin" fill="#B28B67"></path>
                <path d="M76.8206907,6.07840289 L82.1300416,4.68227611 C93.2473375,33.9551497 138.665204,50.5981481 142.325142,61.5844815 C143.667338,65.6134604 140.887831,67.9526758 142.527253,69.0722011 L135.969711,74.814027 C134.662156,73.5335608 132.351818,76.287219 126.909497,74.9785656 C121.467175,73.6699121 79.9301425,41.6195989 76.8206907,6.07840289 Z" id="Clothes-Back" fill="#D50032" transform="translate(109.762629, 40.011673) rotate(5.000000) translate(-109.762629, -40.011673) "></path>
                <path d="M89.0053205,7.34218889 C88.3814901,47.2325771 111.44121,57.407996 106.304802,73.4104053 C102.06324,86.6249311 61.4645077,100.83049 54.4391475,87.8771364 C51.5953714,82.6337841 50.3051385,76.29232 50.1587456,69.3977785 C48.3632107,74.6945994 46.943142,79.2545275 45.8985381,83.0775674 C44.0964503,89.6728455 37.1101405,90.7211945 37.1101405,93.2619324 L27.905776,90.7211945 C28.5300864,87.2694965 24.1909266,85.5887253 25.3543685,77.8773309 C30.5672714,43.3257553 44.5734024,18.280404 67.3727616,2.74127681 L67.6086325,-0.631834386 C67.7050597,-2.01080781 68.9011082,-3.05051694 70.2800817,-2.95408972 L87.1338344,-1.77556052 C88.5128078,-1.67913331 89.5525169,-0.483084776 89.4560897,0.895888645 L89.0053205,7.34218889 Z" id="Clothes-Front" fill="#F9423A"></path>
            </g>
        </g>
        <g id="Group-6" transform="translate(96.000000, 12.000000)">
            <g id="Object/Word-Balloon" transform="translate(22.400000, 20.000000) scale(-1, 1) rotate(10.000000) translate(-22.400000, -20.000000) translate(3.200000, 4.000000)" fill="#FF5F14">
                <path d="M4.096,0 L34.304,0 C36.5661583,0 38.4,1.83384166 38.4,4.096 L38.4,21.504 C38.4,23.7661583 36.5661583,25.6 34.304,25.6 L4.096,25.6 C1.83384166,25.6 0,23.7661583 0,21.504 L0,4.096 C0,1.83384166 1.83384166,0 4.096,0 Z" id="Balloon"></path>
                <path d="M20.352,25.472 C21.8054993,27.2809191 23.6933033,28.7982832 26.015412,30.0240924 C29.4985749,31.8628063 33.9367866,32.3799902 34.2657621,32.0214649 C34.5947377,31.6629396 32.7196108,30.6358746 31.7598857,29.1236794 C31.120069,28.1155493 30.6978672,26.8983228 30.4932805,25.472 L20.352,25.472 Z" id="Caret"></path>
            </g>
            <text id="#!" transform="translate(21.414326, 16.863751) rotate(-10.000000) translate(-21.414326, -16.863751) " font-family="Arial, sans-serif" font-size="22.4" font-weight="bold" fill="#FFFFFF">
                <tspan x="10.4143264" y="25.3637511">#!</tspan>
            </text>
        </g>
    </g>
</svg>
