<?xml version="1.0" encoding="UTF-8"?>
<svg width="322px" height="263px" viewBox="0 0 322 263" version="1.1" xmlns="http://www.w3.org/2000/svg" xmlns:xlink="http://www.w3.org/1999/xlink">
    <!-- Generator: Sketch 61.2 (89653) - https://sketch.com -->
    <title>All Apps - Empty</title>
    <desc>Created with Sketch.</desc>
    <defs>
        <rect id="path-1" x="0" y="0" width="30.72" height="29.9733333" rx="3.2"></rect>
        <mask id="mask-2" maskContentUnits="userSpaceOnUse" maskUnits="objectBoundingBox" x="0" y="0" width="30.72" height="29.9733333" fill="white">
            <use xlink:href="#path-1"></use>
        </mask>
        <rect id="path-3" x="0" y="0" width="30.72" height="29.9733333" rx="3.2"></rect>
        <mask id="mask-4" maskContentUnits="userSpaceOnUse" maskUnits="objectBoundingBox" x="0" y="0" width="30.72" height="29.9733333" fill="white">
            <use xlink:href="#path-3"></use>
        </mask>
        <rect id="path-5" x="0" y="0" width="30.72" height="29.9733333" rx="3.2"></rect>
        <mask id="mask-6" maskContentUnits="userSpaceOnUse" maskUnits="objectBoundingBox" x="0" y="0" width="30.72" height="29.9733333" fill="white">
            <use xlink:href="#path-5"></use>
        </mask>
        <rect id="path-7" x="0" y="0" width="30.72" height="29.9733333" rx="3.2"></rect>
        <mask id="mask-8" maskContentUnits="userSpaceOnUse" maskUnits="objectBoundingBox" x="0" y="0" width="30.72" height="29.9733333" fill="white">
            <use xlink:href="#path-7"></use>
        </mask>
        <rect id="path-9" x="0" y="0" width="30.72" height="29.9733333" rx="3.2"></rect>
        <mask id="mask-10" maskContentUnits="userSpaceOnUse" maskUnits="objectBoundingBox" x="0" y="0" width="30.72" height="29.9733333" fill="white">
            <use xlink:href="#path-9"></use>
        </mask>
        <rect id="path-11" x="0" y="0" width="30.72" height="29.9733333" rx="3.2"></rect>
        <mask id="mask-12" maskContentUnits="userSpaceOnUse" maskUnits="objectBoundingBox" x="0" y="0" width="30.72" height="29.9733333" fill="white">
            <use xlink:href="#path-11"></use>
        </mask>
        <rect id="path-13" x="0" y="0" width="30.72" height="29.9733333" rx="3.2"></rect>
        <mask id="mask-14" maskContentUnits="userSpaceOnUse" maskUnits="objectBoundingBox" x="0" y="0" width="30.72" height="29.9733333" fill="white">
            <use xlink:href="#path-13"></use>
        </mask>
        <rect id="path-15" x="0" y="0" width="30.72" height="29.9733333" rx="3.2"></rect>
        <mask id="mask-16" maskContentUnits="userSpaceOnUse" maskUnits="objectBoundingBox" x="0" y="0" width="30.72" height="29.9733333" fill="white">
            <use xlink:href="#path-15"></use>
        </mask>
        <rect id="path-17" x="0" y="0" width="30.72" height="29.9733333" rx="3.2"></rect>
        <mask id="mask-18" maskContentUnits="userSpaceOnUse" maskUnits="objectBoundingBox" x="0" y="0" width="30.72" height="29.9733333" fill="white">
            <use xlink:href="#path-17"></use>
        </mask>
        <rect id="path-19" x="0" y="0" width="30.72" height="29.9733333" rx="3.2"></rect>
        <mask id="mask-20" maskContentUnits="userSpaceOnUse" maskUnits="objectBoundingBox" x="0" y="0" width="30.72" height="29.9733333" fill="white">
            <use xlink:href="#path-19"></use>
        </mask>
        <rect id="path-21" x="0" y="0" width="30.72" height="29.9733333" rx="3.2"></rect>
        <mask id="mask-22" maskContentUnits="userSpaceOnUse" maskUnits="objectBoundingBox" x="0" y="0" width="30.72" height="29.9733333" fill="white">
            <use xlink:href="#path-21"></use>
        </mask>
        <rect id="path-23" x="0" y="0" width="30.72" height="29.9733333" rx="3.2"></rect>
        <mask id="mask-24" maskContentUnits="userSpaceOnUse" maskUnits="objectBoundingBox" x="0" y="0" width="30.72" height="29.9733333" fill="white">
            <use xlink:href="#path-23"></use>
        </mask>
    </defs>
    <g id="Final" stroke="none" stroke-width="1" fill="none" fill-rule="evenodd">
        <g id="Home---Managelocal-apps--Empty-apps-2" transform="translate(-519.000000, -440.000000)">
            <g id="Group-6" transform="translate(476.000000, 426.000000)">
                <g id="All-Apps---Empty" transform="translate(16.000000, 0.000000)">
                    <g id="Group" stroke-width="1" transform="translate(84.480000, 14.050000)">
                        <rect id="Rectangle" fill="#F0F3F6" x="0" y="0" width="230.4" height="217.306667" rx="32"></rect>
                        <g id="Web-Copy" transform="translate(126.264000, 31.024222)"></g>
                        <g id="Group-5" transform="translate(30.720000, 26.226667)">
                            <g id="Group-3" transform="translate(92.160000, 0.000000)" stroke="#CCCCCC" stroke-dasharray="2" stroke-width="1.6">
                                <g id="Group-2">
                                    <use id="Container" mask="url(#mask-2)" transform="translate(15.360000, 14.986667) scale(-1, 1) translate(-15.360000, -14.986667) " xlink:href="#path-1"></use>
                                </g>
                            </g>
                            <g id="Group-3" transform="translate(138.240000, 0.000000)">
                                <g id="Group-2">
                                    <use id="Container" stroke="#CCCCCC" mask="url(#mask-4)" stroke-width="1.6" stroke-dasharray="2" transform="translate(15.360000, 14.986667) scale(-1, 1) translate(-15.360000, -14.986667) " xlink:href="#path-3"></use>
                                    <g id="Group-4" transform="translate(7.680000, 7.493333)">
                                        <rect id="Rectangle" fill="#DDE3E9" transform="translate(7.680000, 7.493333) scale(-1, 1) translate(-7.680000, -7.493333) " x="0" y="0" width="15.36" height="14.9866667" rx="7.49333333"></rect>
                                        <line x1="2.88" y1="12.1766667" x2="12.48" y2="2.81" id="Line" stroke="#F7F9FA"></line>
                                    </g>
                                </g>
                            </g>
                            <g id="Group-3" transform="translate(46.080000, 0.000000)">
                                <g id="Group-2">
                                    <use id="Container" stroke="#CCCCCC" mask="url(#mask-6)" stroke-width="1.6" stroke-dasharray="2" transform="translate(15.360000, 14.986667) scale(-1, 1) translate(-15.360000, -14.986667) " xlink:href="#path-5"></use>
                                    <g id="Group-4" transform="translate(7.680000, 7.493333)">
                                        <rect id="Rectangle" fill="#DDE3E9" transform="translate(7.680000, 7.493333) scale(-1, 1) translate(-7.680000, -7.493333) " x="0" y="0" width="15.36" height="14.9866667" rx="7.49333333"></rect>
                                        <line x1="2.88" y1="12.1766667" x2="12.48" y2="2.81" id="Line" stroke="#F7F9FA"></line>
                                    </g>
                                </g>
                            </g>
                            <g id="Group-3">
                                <use id="Container" stroke="#CCCCCC" mask="url(#mask-8)" stroke-width="1.6" stroke-dasharray="2" transform="translate(15.360000, 14.986667) scale(-1, 1) translate(-15.360000, -14.986667) " xlink:href="#path-7"></use>
                                <g id="Group-4" transform="translate(7.680000, 7.493333)">
                                    <rect id="Rectangle" fill="#DDE3E9" transform="translate(7.680000, 7.493333) scale(-1, 1) translate(-7.680000, -7.493333) " x="0" y="0" width="15.36" height="14.9866667" rx="7.49333333"></rect>
                                    <line x1="2.88" y1="12.1766667" x2="12.48" y2="2.81" id="Line" stroke="#F7F9FA"></line>
                                </g>
                            </g>
                        </g>
                        <g id="Group-5" transform="translate(30.720000, 86.173333)">
                            <g id="Group-3" transform="translate(92.160000, 0.000000)" stroke="#CCCCCC" stroke-dasharray="2" stroke-width="1.6">
                                <g id="Group-2">
                                    <use id="Container" mask="url(#mask-10)" transform="translate(15.360000, 14.986667) scale(-1, 1) translate(-15.360000, -14.986667) " xlink:href="#path-9"></use>
                                </g>
                            </g>
                            <g id="Group-3" transform="translate(138.240000, 0.000000)">
                                <g id="Group-2">
                                    <use id="Container" stroke="#CCCCCC" mask="url(#mask-12)" stroke-width="1.6" stroke-dasharray="2" transform="translate(15.360000, 14.986667) scale(-1, 1) translate(-15.360000, -14.986667) " xlink:href="#path-11"></use>
                                    <g id="Group-4" transform="translate(7.680000, 7.493333)">
                                        <rect id="Rectangle" fill="#DDE3E9" transform="translate(7.680000, 7.493333) scale(-1, 1) translate(-7.680000, -7.493333) " x="0" y="0" width="15.36" height="14.9866667" rx="7.49333333"></rect>
                                        <line x1="2.88" y1="12.1766667" x2="12.48" y2="2.81" id="Line" stroke="#F7F9FA"></line>
                                    </g>
                                </g>
                            </g>
                            <g id="Group-3" transform="translate(46.080000, 0.000000)">
                                <g id="Group-2">
                                    <use id="Container" stroke="#CCCCCC" mask="url(#mask-14)" stroke-width="1.6" stroke-dasharray="2" transform="translate(15.360000, 14.986667) scale(-1, 1) translate(-15.360000, -14.986667) " xlink:href="#path-13"></use>
                                    <g id="Group-4" transform="translate(7.680000, 7.493333)">
                                        <rect id="Rectangle" fill="#DDE3E9" transform="translate(7.680000, 7.493333) scale(-1, 1) translate(-7.680000, -7.493333) " x="0" y="0" width="15.36" height="14.9866667" rx="7.49333333"></rect>
                                        <line x1="2.88" y1="12.1766667" x2="12.48" y2="2.81" id="Line" stroke="#F7F9FA"></line>
                                    </g>
                                </g>
                            </g>
                            <g id="Group-3" stroke="#CCCCCC" stroke-dasharray="2" stroke-width="1.6">
                                <use id="Container" mask="url(#mask-16)" transform="translate(15.360000, 14.986667) scale(-1, 1) translate(-15.360000, -14.986667) " xlink:href="#path-15"></use>
                            </g>
                        </g>
                        <g id="Group-5" transform="translate(30.720000, 146.120000)">
                            <g id="Group-3" transform="translate(92.160000, 0.000000)">
                                <g id="Group-2">
                                    <use id="Container" stroke="#CCCCCC" mask="url(#mask-18)" stroke-width="1.6" stroke-dasharray="2" transform="translate(15.360000, 14.986667) scale(-1, 1) translate(-15.360000, -14.986667) " xlink:href="#path-17"></use>
                                    <g id="Group-4" transform="translate(7.680000, 7.493333)">
                                        <rect id="Rectangle" fill="#DDE3E9" transform="translate(7.680000, 7.493333) scale(-1, 1) translate(-7.680000, -7.493333) " x="0" y="0" width="15.36" height="14.9866667" rx="7.49333333"></rect>
                                        <line x1="2.88" y1="12.1766667" x2="12.48" y2="2.81" id="Line" stroke="#F7F9FA"></line>
                                    </g>
                                </g>
                            </g>
                            <g id="Group-3" transform="translate(138.240000, 0.000000)" stroke="#CCCCCC" stroke-dasharray="2" stroke-width="1.6">
                                <g id="Group-2">
                                    <use id="Container" mask="url(#mask-20)" transform="translate(15.360000, 14.986667) scale(-1, 1) translate(-15.360000, -14.986667) " xlink:href="#path-19"></use>
                                </g>
                            </g>
                            <g id="Group-3" transform="translate(46.080000, 0.000000)" stroke="#CCCCCC" stroke-dasharray="2" stroke-width="1.6">
                                <g id="Group-2">
                                    <use id="Container" mask="url(#mask-22)" transform="translate(15.360000, 14.986667) scale(-1, 1) translate(-15.360000, -14.986667) " xlink:href="#path-21"></use>
                                </g>
                            </g>
                            <g id="Group-3" stroke="#CCCCCC" stroke-dasharray="2" stroke-width="1.6">
                                <use id="Container" mask="url(#mask-24)" transform="translate(15.360000, 14.986667) scale(-1, 1) translate(-15.360000, -14.986667) " xlink:href="#path-23"></use>
                            </g>
                        </g>
                        <rect id="Rectangle" fill="#C2CFDD" x="15.36" y="63.6933333" width="199.68" height="7.49333333"></rect>
                        <rect id="Rectangle" fill="#C2CFDD" x="15.36" y="123.64" width="199.68" height="7.49333333"></rect>
                        <rect id="Rectangle" fill="#C2CFDD" x="15.36" y="183.586667" width="199.68" height="7.49333333"></rect>
                    </g>
                    <g id="Object/Warning-Sign" transform="translate(288.960000, 157.360000)">
                        <path d="M44.4737332,0 C48.6905644,4.747036e-15 52.1833762,3.27315425 52.4568873,7.48110591 L59.52,116.146667 L39.896,116.146 L37.7142879,101.289674 C37.3646682,98.9096501 35.3741289,97.1271839 32.9918278,97.0213412 L32.7673775,97.0163634 L25.8508043,97.0163634 C23.445238,97.0163634 21.3923973,98.7267076 20.94144,101.068331 L20.9038939,101.289674 L18.721,116.146 L0,116.146667 L7.06311271,7.48110591 C7.33662381,3.27315425 10.8294356,-6.33080803e-15 15.0462668,0 L44.4737332,0 Z M39.2668112,9.82779487 L20.2531888,9.82779487 C18.0327492,9.82779487 16.2327273,11.6278168 16.2327273,13.8482564 C16.2327273,16.068696 18.0327492,17.8687179 20.2531888,17.8687179 L20.2531888,17.8687179 L39.2668112,17.8687179 C41.4872508,17.8687179 43.2872727,16.068696 43.2872727,13.8482564 C43.2872727,11.6278168 41.4872508,9.82779487 39.2668112,9.82779487 L39.2668112,9.82779487 Z" id="Sign" fill="#FFC06D"></path>
                        <path d="M40.2121667,59.0412222 C41.0139921,59.0412222 41.664,59.6912301 41.664,60.4930556 C41.664,61.294881 41.0139921,61.9448889 40.2121667,61.9448889 L19.3078333,61.9448889 C18.5060079,61.9448889 17.856,61.294881 17.856,60.4930556 C17.856,59.6912301 18.5060079,59.0412222 19.3078333,59.0412222 L40.2121667,59.0412222 Z M30.2722896,32.0040596 C30.4147503,32.0890387 30.5338337,32.2081221 30.6188128,32.3505828 L41.7539055,51.0176801 C42.0368353,51.4919893 41.8816916,52.1058527 41.4073824,52.3887825 C41.2524772,52.4811848 41.075464,52.5299697 40.8950928,52.5299697 L18.6249072,52.5299697 C18.0726225,52.5299697 17.6249072,52.0822544 17.6249072,51.5299697 C17.6249072,51.3495984 17.6736921,51.1725852 17.7660945,51.0176801 L28.9011872,32.3505828 C29.184117,31.8762736 29.7979804,31.7211299 30.2722896,32.0040596 Z M29.76,47.3825606 C29.1125214,47.3825606 28.5876364,47.8434753 28.5876364,48.4120424 C28.5876364,48.9806095 29.1125214,49.4415242 29.76,49.4415242 C30.4074786,49.4415242 30.9323636,48.9806095 30.9323636,48.4120424 C30.9323636,47.8434753 30.4074786,47.3825606 29.76,47.3825606 Z M29.8400055,39.1467061 L29.6755733,39.1467061 L29.5575583,39.1531944 C29.0559381,39.2089238 28.68713,39.6170932 28.6734231,40.1228656 L28.6766648,40.241199 L29.1335275,45.8577556 L29.1489029,45.9467906 C29.2027461,46.1489746 29.3781489,46.308401 29.5866725,46.3450985 L29.6778097,46.3530788 L29.8421903,46.3530788 L29.9334325,46.3450388 C30.1421384,46.3080805 30.3173051,46.147663 30.3708994,45.9463136 L30.3861686,45.8577556 L30.8395855,40.241199 L30.8427142,40.1219419 C30.826883,39.5735689 30.3921825,39.1467061 29.8400055,39.1467061 Z" id="Symbol" fill="#FF9E1B"></path>
                    </g>
                    <g id="Group-6" stroke-width="1" transform="translate(78.720000, 12.113333)">
                        <g id="Object/Word-Balloon" transform="translate(21.504000, 19.733333) scale(-1, 1) rotate(10.000000) translate(-21.504000, -19.733333) translate(3.072000, 4.746667)" fill="#FF5F14">
                            <path d="M3.93216,0 L32.93184,0 C35.103512,0 36.864,1.67949332 36.864,3.75125333 L36.864,19.69408 C36.864,21.76584 35.103512,23.4453333 32.93184,23.4453333 L3.93216,23.4453333 C1.760488,23.4453333 0,21.76584 0,19.69408 L0,3.75125333 C0,1.67949332 1.760488,0 3.93216,0 Z" id="Balloon"></path>
                            <path d="M18.816,23.3173333 C20.2694993,25.1262524 22.1573033,26.6436165 24.479412,27.8694258 C27.9625749,29.7081396 32.4007866,30.2253236 32.7297621,29.8667983 C33.0587377,29.5082729 31.1836108,28.4812079 30.2238857,26.9690127 C29.584069,25.9608826 29.1618672,24.7436562 28.9572805,23.3173333 L18.816,23.3173333 Z" id="Caret"></path>
                        </g>
                        <text id="#!" transform="translate(20.991069, 16.719308) rotate(-10.000000) translate(-20.991069, -16.719308) " font-family="Arial, sans-serif" font-size="22.4" font-weight="bold" fill="#FFFFFF">
                            <tspan x="9.99106872" y="25.2193084">#!</tspan>
                        </text>
                    </g>
                    <g id="humaaan-11" stroke-width="1" transform="translate(-13.440000, 31.846667)">
                        <g id="Head/Front/Curly" transform="translate(73.455712, 33.905624) rotate(-7.000000) translate(-73.455712, -33.905624) translate(34.266432, 4.636143)">
                            <g id="Head" stroke-width="1" transform="translate(31.120899, 17.449114)" fill="#B28B67">
                                <path d="M21.9825012,5.14125914 C25.3221256,11.2209366 24.9252914,26.6425427 20.6091244,27.7291506 C18.8877445,28.1625131 15.2205823,27.100863 11.4883725,24.9036206 L13.8315106,41.0898482 L0,41.0898482 L4.76113424,19.41302 C2.10582234,16.3686807 0.308712909,12.6378815 0.609033876,8.45744684 C1.47439881,-3.58833737 18.6428768,-0.938418317 21.9825012,5.14125914 Z"></path>
                            </g>
                            <path d="M59.2309657,14.1621722 C58.9445438,13.1788647 58.1741414,12.3369485 57.1358952,12.0871756 C56.8841221,12.0265899 56.6241046,12.002119 56.365037,12.0123213 C56.2721085,12.0159439 56.2460459,12.0421152 56.202621,11.9786462 C56.1704038,11.9315897 56.169682,11.8166283 56.1564227,11.7613286 C56.1151634,11.5893671 56.0635702,11.4195497 55.9998956,11.254131 C55.7826572,10.6899333 55.4175917,10.1906093 54.9774921,9.76998391 C54.1543188,8.98307174 53.0420641,8.4399811 51.8864986,8.34172797 C51.2540453,8.28798078 50.626189,8.38834091 50.0282704,8.58928297 C49.7187114,8.69330265 49.4185364,8.82282821 49.1261877,8.96603085 C49.0381602,9.00913211 48.7525741,9.22023956 48.6642426,9.20656249 C48.5666791,9.19148074 48.3706022,8.95468258 48.2912749,8.89524276 C47.3107386,8.16048829 46.0998946,7.87160636 44.8785649,7.88024486 C43.5000241,7.89038461 42.1725826,7.95766101 41.0228678,8.77843318 C40.7794909,8.95220592 40.5477015,9.14246508 40.3270058,9.34277873 C40.2107882,9.44824004 40.0982178,9.55765661 39.9908523,9.67161989 C39.9260759,9.7403749 39.8630091,9.81068244 39.8022979,9.8828752 C39.6992635,10.0054144 39.71579,10.0456693 39.5715723,9.96016914 C39.0182564,9.63184549 38.3770649,9.47829263 37.7312384,9.55580836 C37.3477469,9.60186683 36.9746271,9.71431453 36.6203515,9.86232263 C36.4997268,9.912706 36.2205234,10.113685 36.0919583,10.1156442 C35.9644191,10.1175664 35.6891288,9.93126246 35.5577524,9.88391022 C34.8481753,9.62807505 34.0833577,9.56501266 33.3375362,9.68322692 C32.5681976,9.80521161 31.8124602,10.1049982 31.1606309,10.5192657 C30.8471207,10.7185443 30.5735781,10.9393366 30.3538702,11.2356485 C30.2590041,11.3635846 30.1732561,11.4989136 30.0657386,11.6175345 C30.0027859,11.6869919 29.878134,11.7582605 29.8443591,11.8461634 C29.8645709,11.7935252 29.0029876,11.4691198 28.9216847,11.4483824 C28.4885375,11.3378938 28.0474881,11.3602947 27.6233451,11.4966218 C26.8257784,11.7529745 26.1398703,12.3278551 25.5761446,12.9172629 C25.2866073,13.2200068 25.0332385,13.5546514 24.8181656,13.9111794 C24.7150932,14.081958 24.620835,14.257616 24.5345931,14.4370074 C24.4928019,14.5239123 24.4651057,14.6326265 24.4100552,14.7109185 C24.3390861,14.8117961 24.2914061,14.8137183 24.1628791,14.8577067 C23.510138,15.0810496 22.9151069,15.4590913 22.4619759,15.9699114 C22.0036401,16.4867199 21.7062385,17.1231473 21.5815487,17.7933608 C21.5742162,17.8328395 21.5698471,17.9964468 21.5461781,18.0178126 C21.5137329,18.0472368 21.3824704,18.0342251 21.3328148,18.0399177 C21.1608629,18.0596201 20.9901267,18.0889334 20.8216701,18.1278946 C20.5111232,18.1996807 20.2088586,18.3053269 19.9229306,18.4435023 C18.8083205,18.9821201 18.0112477,19.9918946 17.6211456,21.1281266 C17.2118194,22.3205455 17.2190759,23.6866632 17.7082993,24.856829 C17.7873227,25.0458314 17.881353,25.229289 17.9917958,25.4028399 C18.0596116,25.5093732 18.081495,25.509632 18.0374622,25.6214143 C17.9883765,25.7457648 17.8987153,25.8666036 17.8404356,25.9881077 C17.6502854,26.3846319 17.5173513,26.8051834 17.4333889,27.2347173 C17.2956299,27.9393083 17.2273582,28.6797554 17.3632557,29.3897063 C17.4263604,29.7193607 17.5363094,30.0416221 17.7040442,30.3352356 C17.7895642,30.4849441 17.8896352,30.6269269 18.0026235,30.7582637 C18.0612832,30.8264642 18.1235901,30.8915967 18.1887465,30.9539937 C18.2260167,30.989628 18.2748744,31.0208265 18.3065598,31.0606379 C18.3839115,31.1577081 18.4001721,31.0779006 18.3602805,31.2204378 C18.3045082,31.4197165 18.1780707,31.6163336 18.100643,31.8102523 C18.0208597,32.0100854 17.9487508,32.2126539 17.8827967,32.4172186 C17.7492167,32.831449 17.6362664,33.2531834 17.5656392,33.6821629 C17.4300077,34.5057814 17.4538287,35.3833688 17.852707,36.1392673 C18.0232532,36.4626007 18.2679219,36.7462336 18.5646776,36.966878 C18.7099211,37.074816 18.8672461,37.167857 19.0322835,37.2442638 C19.1170817,37.2835946 19.225359,37.3004507 19.2640349,37.380554 C19.3056741,37.4666826 19.2438611,37.6377199 19.2297661,37.7340139 C19.1071278,38.571716 19.0456187,39.4512626 19.3005832,40.2721827 C19.5354119,41.0283029 20.0524455,41.6958919 20.7237266,42.1378831 C22.0259794,42.9952876 23.7813631,42.9469373 25.149684,42.2605332 C25.5063532,42.0815853 25.8400372,41.8594253 26.1377048,41.59738 C26.8956837,42.593958 28.4554465,42.5624268 29.5632561,42.2784612 C30.9434305,41.9247056 32.0508982,40.9873826 32.6889743,39.7558547 C33.5614612,40.7932052 35.3925251,40.4566383 35.9975481,39.3312741 C36.1456411,39.0558474 36.2334786,38.7522903 36.2767136,38.4451107 C36.2994708,38.2835734 36.2849578,38.1206314 36.3020542,37.9603879 C36.3238617,37.7561929 36.4635204,37.5577645 36.5437975,37.3602232 C36.7001347,36.9757866 36.7972044,36.578671 36.8013835,36.1639969 C36.803549,35.9474926 36.7754729,35.736496 36.7543873,35.521729 C36.7354293,35.3284018 36.7903278,35.148271 36.8215193,34.9574574 C36.4675475,35.0143836 36.0363,34.9211577 35.702806,34.8209085 C35.3755426,34.7225445 35.0690229,34.4634564 34.8380314,34.226843 C34.3016979,33.6773944 33.9740547,32.9571302 33.7499777,32.2402668 C33.2580949,30.6668861 33.4597186,28.7791914 35.0800406,27.9156877 C35.8348663,27.5134339 38.0962286,27.5147533 38.9952594,27.7135608 C39.9405509,27.9225982 41.012192,29.9597815 41.064925,30.1512605 C41.0975601,30.2697705 41.0811476,30.4164478 41.1926162,30.4954052 C41.4375888,30.6690301 41.841596,30.3677279 42.0222861,30.2190174 C42.3340867,29.962369 42.556492,29.6208858 42.7491116,29.274745 C43.1688096,28.5206578 43.5071666,27.7119732 43.7461744,26.8864326 C43.9304358,26.2499682 44.0482491,25.5936536 44.2890805,24.9734168 C44.5287343,24.3562482 44.906527,23.8046187 45.4939218,23.4550031 C46.1329097,23.0746696 46.865358,22.874356 47.5668429,22.6353399 C48.262173,22.3984678 48.9454976,22.1089575 49.4844905,21.6063436 C49.6029877,21.495818 49.7181035,21.3783801 49.8135015,21.2482631 C49.8888017,21.1455372 49.9632281,20.948883 50.077964,20.8837506 C50.2563366,20.7824294 50.516658,21.0459163 50.6709056,21.1415819 C51.431886,21.6136257 52.0667708,22.2719734 52.5788273,22.9911656 C53.0880345,23.7064395 53.5058633,24.3946919 53.845398,25.1933959 C54.0972472,25.785761 54.2544278,26.5443949 54.6973769,27.029857 C54.8951254,27.2466201 56.365037,27.3777559 56.8411531,27.188511 C57.3172692,26.9992662 57.8508672,26.5078734 58.0106617,26.1999175 C58.1742554,25.8847164 58.2133492,25.5384647 58.1434439,25.1933959 C58.1023365,24.9903838 58.0183741,24.8007531 57.9724417,24.6013635 C57.9337658,24.4338748 57.8986612,24.2755535 57.8151927,24.1221115 C57.6569939,23.8313444 57.3867186,23.6223439 57.060785,23.5349585 C57.3999778,23.2295163 57.6810429,22.8641167 57.8755241,22.4556528 C58.0776037,22.0312939 58.2488717,21.5152247 58.2974635,21.049465 C58.3369753,20.6711646 58.275998,20.279224 58.0639645,19.9541163 C57.8415212,19.6130767 57.4474679,19.390584 57.1065274,19.1778501 C57.6273221,18.7798843 58.0730446,18.2959008 58.4394777,17.7600553 C59.1520942,16.7180103 59.5928778,15.4044939 59.2309657,14.1621722 Z" id="hair" fill="#051E36"></path>
                        </g>
                        <g id="Bottom/Standing/Sweatpants" transform="translate(0.000000, 109.922994)">
                            <polygon id="Leg" fill="#997659" points="73.7680563 5.59925074e-14 94.8788821 71.0499252 105.495123 131.420455 115.275482 131.420455 104.826122 5.59925074e-14"></polygon>
                            <path d="M64.2806355,0 C65.7536786,36.9100675 65.1727318,57.0418213 64.8430472,60.3952614 C64.5133626,63.7487015 62.6417185,86.2077949 49.8877732,125.521043 C50.6694706,129.453984 51.601833,131.420455 52.6848603,131.420455 C53.9053284,131.420455 55.5503237,131.24182 57.6198463,130.88455 C74.5103494,93.1702055 83.0403182,65.3476054 84.9775311,60.3952614 C86.9147439,55.4429174 92.636198,35.3111636 100.989267,0 L64.2806355,0 Z" id="Leg" fill="#B28B67"></path>
                            <path d="M73.3148661,6.39914371e-14 C78.8061211,24.4484739 88.3036389,63.4744485 101.807419,117.077924 L116.384127,117.077924 C117.460783,62.059083 112.880738,25.8474816 104.949245,6.39914371e-14 L73.3148661,6.39914371e-14 Z" id="Pant" fill="#B3A181"></path>
                            <path d="M64.2069778,0 C65.6496307,36.9100675 61.9109042,73.273475 50.3297017,117.652595 L65.8822472,117.652595 C82.8038026,80.5011252 94.9320264,44.3171577 103.220861,0 L64.2069778,0 Z" id="Pant" fill="#9B8A6C"></path>
                            <g id="Accessories/Shoe/Flat-Simple" transform="translate(48.410287, 112.012052)" fill="#E6E6E6">
                                <path d="M0,20.8263614 L0.571946027,11.8203673 C3.92060962,12.7769306 8.11488048,12.4016808 13.1547586,10.694618 C18.3486691,14.2879249 24.8312545,16.7888923 32.6025149,18.1975201 C33.7359985,18.4029723 34.4883125,19.488397 34.2828561,20.6218799 C34.2700514,20.692522 34.253608,20.7624559 34.2335916,20.8314023 L33.7448156,22.5149853 L33.7448156,22.5149853 L13.1547586,22.5149853 L1.14389205,22.5149853 L0,20.8263614 Z" id="Shoe"></path>
                            </g>
                            <g id="Accessories/Shoe/Flat-Simple" transform="translate(102.583703, 112.012052)" fill="#E6E6E6">
                                <path d="M0,20.8263614 L0.571946027,11.8203673 C3.92060962,12.7769306 8.11488048,12.4016808 13.1547586,10.694618 C18.3486691,14.2879249 24.8312545,16.7888923 32.6025149,18.1975201 C33.7359985,18.4029723 34.4883125,19.488397 34.2828561,20.6218799 C34.2700514,20.692522 34.253608,20.7624559 34.2335916,20.8314023 L33.7448156,22.5149853 L33.7448156,22.5149853 L13.1547586,22.5149853 L1.14389205,22.5149853 L0,20.8263614 Z" id="Shoe"></path>
                            </g>
                        </g>
                        <g id="Body/Hoodie" transform="translate(85.870628, 104.012810) rotate(-10.000000) translate(-85.870628, -104.012810) translate(12.102572, 51.384032)">
                            <path d="M39.3667428,52.3585373 L51.4101801,52.4047941 C43.9739133,75.8505871 39.9594342,88.290778 39.3667428,89.7253668 C38.0331873,92.9531917 40.8551702,97.869113 42.0619621,100.510892 C38.1314811,102.228655 38.550278,95.8670788 33.5920819,98.1200202 C29.0664704,100.176401 25.6238491,103.902424 20.3951589,100.751391 C19.7523222,100.36399 19.0478779,98.9053554 20.7499044,97.7655094 C24.9902732,94.9257376 31.1009016,89.9556251 31.9265437,88.3196741 C33.0524543,86.0887627 35.5325206,74.1017171 39.3667428,52.3585373 L39.3667428,52.3585373 Z M109.949677,51.903506 L128.333063,65.0880555 C133.319016,66.4020741 137.484619,68.0369351 140.829871,69.9926386 C141.620077,70.695897 142.575116,72.1201121 139.297938,71.8739721 C136.02076,71.627832 132.562327,71.5128798 132.11014,72.6046101 C131.657953,73.6963404 133.641124,75.0019301 132.727057,76.4749602 C132.117679,77.4569802 129.238734,74.9946014 124.090221,69.0878237 L105.885846,61.7149522 L109.949677,51.903506 Z" id="Skin" fill="#B28B67"></path>
                            <path d="M70.8009263,5.4471114 L75.6926507,4.1811143 C95.4719929,18.1105376 105.64968,47.3046407 129.611384,61.1452716 L124.752641,68.1997092 C85.1695526,66.8899346 72.2751632,31.322138 70.8009263,5.4471114 Z" id="Coat-Back" fill="#5900CB" transform="translate(100.206155, 36.190412) rotate(5.000000) translate(-100.206155, -36.190412) "></path>
                            <path d="M51.8681646,64.1677082 C71.8499462,64.1677082 86.5481259,64.1677082 95.9627037,64.1677082 C97.9775993,64.1677082 97.5979306,61.3261128 97.3066653,59.8922281 C93.9451111,43.3434667 80.8228784,25.5047026 80.8228784,1.9479573 L68.1039375,0 C57.5837395,16.5251025 53.9456726,36.8708495 51.8681646,64.1677082 Z" id="Shirt" fill="#E1E7EE"></path>
                            <path d="M67.1462387,-3.99680289e-15 C67.5756769,-3.77475828e-15 67.9690861,0.0262264822 68.3264663,0.0786794467 L72.3108993,0.30099155 C83.7348042,38.1151652 86.885449,63.3441932 81.7628337,75.9880755 L81.7628337,75.9880755 L47.0566793,75.9887991 C45.0005104,80.6715257 43.0329261,84.6114069 41.1539265,87.8084428 L41.1539265,87.8084428 L31.6972117,87.8084428 C30.8071906,59.7021177 37.6491405,35.8468587 52.2230611,16.2426656 C50.3757843,15.7252477 48.9125962,14.515577 47.833974,12.6146905 C43.1851785,4.42198577 44.8640762,-0.0887049812 49.8321642,-1.5713945 C54.8002522,-3.05408403 59.2307464,-1.17683641e-14 67.1462387,-3.99680289e-15 Z" id="Coat-Front" fill="#8B46E1"></path>
                            <path d="M59.9365458,75.9880755 L47.0570623,75.9879267 C49.4555845,70.5254451 51.9746446,64.052167 54.6142425,56.5680924 C55.705829,65.4867698 57.4798962,71.9604992 59.9365458,75.9880755 Z" id="Shade" fill-opacity="0.1" fill="#000000"></path>
                        </g>
                    </g>
                </g>
            </g>
        </g>
    </g>
</svg>
