<svg width="24" height="24" viewBox="0 0 24 24" fill="none" xmlns="http://www.w3.org/2000/svg">
<path fill-rule="evenodd" clip-rule="evenodd" d="M13.9152 3.0851C13.7249 3.64345 13.6216 4.2421 13.6216 4.86487C13.6216 7.9099 16.0901 10.3784 19.1351 10.3784C19.7579 10.3784 20.3566 10.2751 20.9149 10.0848C21.2336 11.0989 21.4054 12.178 21.4054 13.2973C21.4054 19.2082 16.6136 24 10.7027 24C4.79176 24 0 19.2082 0 13.2973C0 7.38636 4.79176 2.59459 10.7027 2.59459C11.822 2.59459 12.9011 2.76641 13.9152 3.0851Z" fill="#3771BF"/>
<path fill-rule="evenodd" clip-rule="evenodd" d="M10.6221 4.54057C5.85248 4.56158 1.96408 8.4805 1.94587 13.2841C1.92313 19.2931 7.92818 23.5553 13.5979 21.5544C17.0893 20.3223 19.4252 17.058 19.4591 13.3637C19.4639 12.8444 19.1476 12.4379 18.6651 12.3496C18.0418 12.2355 17.5402 12.6968 17.5284 13.3826C17.4586 17.4477 13.9125 20.5591 9.89978 20.0769C6.37921 19.6539 3.70228 16.5386 3.88044 13.0739C4.07108 9.36586 6.97758 6.52917 10.6341 6.48112C11.242 6.47313 11.6754 6.06997 11.6734 5.50563C11.6713 4.94363 11.2255 4.5379 10.6221 4.54057ZM10.7024 18.1545C8.03487 18.1466 5.8612 15.9823 5.85132 13.3221C5.84143 10.6587 7.99121 8.46533 10.6317 8.44574C11.3055 8.44078 11.7849 8.97667 11.6629 9.60693C11.5717 10.0783 11.1838 10.3831 10.6646 10.3974C9.36564 10.4333 8.26187 11.2665 7.92402 12.4765C7.59733 13.6466 7.88565 14.6626 8.77871 15.4585C9.68009 16.2618 10.7316 16.4353 11.8363 15.9604C12.9532 15.4803 13.5471 14.589 13.604 13.3374C13.6238 12.9043 13.8001 12.5967 14.1593 12.4234C14.5037 12.2574 14.8534 12.2921 15.1646 12.5215C15.4156 12.7065 15.5468 12.9674 15.554 13.286C15.6088 15.6992 13.6424 17.8964 11.2303 18.1169C11.1327 18.1258 11.0506 18.1317 10.8822 18.1427C10.7916 18.1486 10.7552 18.1511 10.7099 18.1543L10.7027 18.0527L10.7024 18.1545ZM10.6967 14.3178C11.2691 14.3201 11.7207 13.8742 11.724 13.3036C11.7273 12.7372 11.2734 12.2766 10.7087 12.273C10.1447 12.2695 9.68426 12.7261 9.68164 13.2916C9.67902 13.863 10.1267 14.3155 10.6967 14.3178Z" fill="white"/>
<path d="M14.2705 4.86487C14.2705 2.17807 16.4486 0 19.1354 0V0C21.8222 0 24.0002 2.17807 24.0002 4.86487V4.86487C24.0002 7.55166 21.8222 9.72973 19.1354 9.72973V9.72973C16.4486 9.72973 14.2705 7.55166 14.2705 4.86487V4.86487Z" fill="#3771BF"/>
<path fill-rule="evenodd" clip-rule="evenodd" d="M15.1714 4.86487C15.1714 2.67563 16.9461 0.900902 19.1354 0.900902C21.3246 0.900902 23.0993 2.67563 23.0993 4.86487C23.0993 7.0541 21.3246 8.82883 19.1354 8.82883C16.9461 8.82883 15.1714 7.0541 15.1714 4.86487ZM22.3063 4.86487C22.3063 3.11348 20.8865 1.6937 19.1351 1.6937C17.3838 1.6937 15.964 3.11348 15.964 4.86487C15.964 6.61626 17.3838 8.03604 19.1351 8.03604C20.8865 8.03604 22.3063 6.61626 22.3063 4.86487Z" fill="white"/>
<path d="M22.108 5.65767C22.3269 5.65767 22.5044 5.83514 22.5044 6.05406C22.5044 6.25109 22.3606 6.41455 22.1723 6.44527L22.108 6.45046H16.162C15.9431 6.45046 15.7656 6.27299 15.7656 6.05406C15.7656 5.85703 15.9094 5.69357 16.0977 5.66285L16.162 5.65767H22.108Z" fill="white"/>
<path d="M22.108 3.27929C22.3269 3.27929 22.5044 3.45676 22.5044 3.67568C22.5044 3.87271 22.3606 4.03617 22.1723 4.06689L22.108 4.07208H16.162C15.9431 4.07208 15.7656 3.89461 15.7656 3.67568C15.7656 3.47865 15.9094 3.31519 16.0977 3.28447L16.162 3.27929H22.108Z" fill="white"/>
<path d="M17.9219 1.20658L18.6936 1.38802C18.1817 3.56528 18.2304 5.87116 18.8299 8.01152L18.9193 8.31613L18.1614 8.54875C17.4686 6.29169 17.362 3.84675 17.8514 1.52272L17.9219 1.20658Z" fill="white"/>
<path d="M20.347 1.20605C20.596 2.25848 20.7217 3.34552 20.7208 4.43651C20.7226 5.7217 20.5487 6.99833 20.2062 8.21811L20.1086 8.54934L19.3511 8.31555C19.7345 7.07299 19.9299 5.76035 19.928 4.43674C19.9288 3.53518 19.838 2.63729 19.6581 1.76216L19.5755 1.38856L20.347 1.20605Z" fill="white"/>
</svg>
