<?xml version="1.0" encoding="UTF-8"?>
<svg width="24px" height="24px" viewBox="0 0 24 24" version="1.1" xmlns="http://www.w3.org/2000/svg" xmlns:xlink="http://www.w3.org/1999/xlink">
    <!-- Generator: Sketch 48.2 (47327) - http://www.bohemiancoding.com/sketch -->
    <title>01 - Icons/Toasts/24/Success</title>
    <desc>Created with Sketch.</desc>
    <defs></defs>
    <g id="Symbols" stroke="none" stroke-width="1" fill="none" fill-rule="evenodd">
        <g id="01---Icons/Toasts/24/Success" fill="#4A9912" fill-rule="nonzero">
            <path d="M12,23 C5.92486775,23 1,18.0751322 1,12 C1,5.92486775 5.92486775,1 12,1 C18.0751322,1 23,5.92486775 23,12 C23,18.0751322 18.0751322,23 12,23 Z M12,22 C17.5228475,22 22,17.5228475 22,12 C22,6.4771525 17.5228475,2 12,2 C6.4771525,2 2,6.4771525 2,12 C2,17.5228475 6.4771525,22 12,22 Z M17.75,9.25 L10,17 L6.25,13.25 C6.11192881,13.1119288 6.11192881,12.8880712 6.25,12.75 C6.38807119,12.6119288 6.61192881,12.6119288 6.75,12.75 L10,16 L17.25,8.75 C17.3880712,8.61192881 17.6119288,8.61192881 17.75,8.75 C17.8880712,8.88807119 17.8880712,9.11192881 17.75,9.25 Z" id="Combined-Shape"></path>
        </g>
    </g>
</svg>
