<svg width="135" height="36" viewBox="0 0 135 36" fill="none" xmlns="http://www.w3.org/2000/svg">
<path fill-rule="evenodd" clip-rule="evenodd" d="M10.2555 0.5H124.744C128.169 0.5 129.418 0.838886 130.672 1.50944C131.887 2.15938 132.841 3.11314 133.491 4.32842C134.161 5.58224 134.5 6.83106 134.5 10.2555V25.7445C134.5 29.1689 134.161 30.4178 133.491 31.6716C132.841 32.8869 131.887 33.8406 130.672 34.4906C129.418 35.1611 128.169 35.5 124.744 35.5H10.2555C6.83106 35.5 5.58224 35.1611 4.32842 34.4906C3.11314 33.8406 2.15938 32.8869 1.50944 31.6716C0.838886 30.4178 0.5 29.1689 0.5 25.7445V10.2555C0.5 6.83106 0.838886 5.58224 1.50944 4.32842C2.15938 3.11314 3.11314 2.15938 4.32842 1.50944C5.58224 0.838886 6.83106 0.5 10.2555 0.5Z" fill="white" stroke="#BFBFBF"/>
<path d="M48.792 23H50.5186L47.2686 13.8403H45.4214L42.1714 23H43.8599L44.6406 20.6323H48.0112L48.792 23ZM46.3037 15.459H46.3481L47.624 19.3691H45.0215L46.3037 15.459ZM53.6416 23.1079C54.6255 23.1079 55.3999 22.6064 55.7681 21.8511H55.7935V23H57.3423V13.8403H55.7617V17.4014H55.7236C55.3682 16.6587 54.6064 16.1572 53.6416 16.1572C51.9468 16.1572 50.8486 17.5029 50.8486 19.6294C50.8486 21.7686 51.9468 23.1079 53.6416 23.1079ZM54.1177 17.4585C55.1143 17.4585 55.7681 18.3154 55.7681 19.6357C55.7681 20.9688 55.1143 21.813 54.1177 21.813C53.0957 21.813 52.4673 20.9751 52.4673 19.6357C52.4673 18.3027 53.1021 17.4585 54.1177 17.4585ZM61.1826 23.1079C62.1665 23.1079 62.9409 22.6064 63.3091 21.8511H63.3345V23H64.8833V13.8403H63.3027V17.4014H63.2646C62.9092 16.6587 62.1475 16.1572 61.1826 16.1572C59.4878 16.1572 58.3896 17.5029 58.3896 19.6294C58.3896 21.7686 59.4878 23.1079 61.1826 23.1079ZM61.6587 17.4585C62.6553 17.4585 63.3091 18.3154 63.3091 19.6357C63.3091 20.9688 62.6553 21.813 61.6587 21.813C60.6367 21.813 60.0083 20.9751 60.0083 19.6357C60.0083 18.3027 60.6431 17.4585 61.6587 17.4585ZM70.666 20.9878C70.4946 21.5464 69.936 21.9146 69.1997 21.9146C68.165 21.9146 67.5049 21.1909 67.5049 20.1118V20.0166H72.2085V19.5024C72.2085 17.4585 71.0151 16.1318 69.1045 16.1318C67.1621 16.1318 65.9307 17.5347 65.9307 19.6611C65.9307 21.8066 67.1494 23.1333 69.168 23.1333C70.7612 23.1333 71.9419 22.2573 72.145 20.9878H70.666ZM69.1108 17.3569C70.0186 17.3569 70.6279 18.0234 70.6597 18.9756H67.5176C67.5811 18.0361 68.2222 17.3569 69.1108 17.3569ZM75.7441 23.1079C76.728 23.1079 77.5024 22.6064 77.8706 21.8511H77.896V23H79.4448V13.8403H77.8643V17.4014H77.8262C77.4707 16.6587 76.709 16.1572 75.7441 16.1572C74.0493 16.1572 72.9512 17.5029 72.9512 19.6294C72.9512 21.7686 74.0493 23.1079 75.7441 23.1079ZM76.2202 17.4585C77.2168 17.4585 77.8706 18.3154 77.8706 19.6357C77.8706 20.9688 77.2168 21.813 76.2202 21.813C75.1982 21.813 74.5698 20.9751 74.5698 19.6357C74.5698 18.3027 75.2046 17.4585 76.2202 17.4585ZM83.812 14.6973V16.2715H82.8472V17.4902H83.812V21.21C83.812 22.5176 84.3833 23.0317 85.8369 23.0317C86.1733 23.0317 86.4844 23.0063 86.6558 22.9683V21.7622C86.5542 21.7812 86.3511 21.7939 86.2051 21.7939C85.6465 21.7939 85.3926 21.54 85.3926 20.9878V17.4902H86.6621V16.2715H85.3926V14.6973H83.812ZM90.5913 23.1333C92.5654 23.1333 93.8477 21.8193 93.8477 19.6357C93.8477 17.4585 92.5527 16.1318 90.5913 16.1318C88.6299 16.1318 87.335 17.4648 87.335 19.6357C87.335 21.8193 88.6172 23.1333 90.5913 23.1333ZM90.5913 21.8828C89.5884 21.8828 88.9409 21.0703 88.9409 19.6357C88.9409 18.2075 89.5947 17.3887 90.5913 17.3887C91.5942 17.3887 92.2417 18.2075 92.2417 19.6357C92.2417 21.0703 91.5942 21.8828 90.5913 21.8828ZM97.2437 20.4419C97.3198 22.1177 98.7227 23.1523 100.843 23.1523C103.045 23.1523 104.423 22.0479 104.423 20.2959C104.423 18.9375 103.617 18.1631 101.687 17.7632L100.697 17.5601C99.5542 17.3188 99.0972 16.9189 99.0972 16.2969C99.0972 15.5288 99.8208 15.0464 100.836 15.0464C101.884 15.0464 102.607 15.5669 102.684 16.4302H104.251C104.213 14.7925 102.874 13.688 100.849 13.688C98.8623 13.688 97.4468 14.7798 97.4468 16.3921C97.4468 17.7314 98.3037 18.5947 100.138 18.9692L101.122 19.1724C102.315 19.4199 102.772 19.8262 102.772 20.4863C102.772 21.248 102.004 21.7939 100.9 21.7939C99.7573 21.7939 98.9321 21.2861 98.8115 20.4419H97.2437ZM106.314 15.2559C106.797 15.2559 107.178 14.8687 107.178 14.3989C107.178 13.9229 106.797 13.542 106.314 13.542C105.832 13.542 105.445 13.9229 105.445 14.3989C105.445 14.8687 105.832 15.2559 106.314 15.2559ZM105.527 23H107.108V16.2715H105.527V23ZM108.435 23H110.015V19.0835C110.015 18.1377 110.555 17.5601 111.45 17.5601C111.716 17.5601 111.958 17.5981 112.091 17.6489V16.2207C111.977 16.1953 111.799 16.1572 111.596 16.1572C110.802 16.1572 110.212 16.627 109.983 17.4458H109.952V16.2715H108.435V23ZM113.729 15.2559C114.211 15.2559 114.592 14.8687 114.592 14.3989C114.592 13.9229 114.211 13.542 113.729 13.542C113.246 13.542 112.859 13.9229 112.859 14.3989C112.859 14.8687 113.246 15.2559 113.729 15.2559ZM112.941 23H114.522V16.2715H112.941V23Z" fill="black"/>
<path d="M25 31C32.1797 31 38 25.1797 38 18C38 10.8203 32.1797 5 25 5C17.8203 5 12 10.8203 12 18C12 25.1797 17.8203 31 25 31Z" fill="black"/>
<path d="M20.25 19L23.25 21.5L29.75 15" stroke="white" stroke-width="2" stroke-linecap="round" stroke-linejoin="round"/>
</svg>
