<?xml version="1.0" encoding="UTF-8"?>
<svg width="400px" height="300px" viewBox="0 0 400 300" version="1.1" xmlns="http://www.w3.org/2000/svg" xmlns:xlink="http://www.w3.org/1999/xlink">
    <!-- Generator: Sketch 56.2 (81672) - https://sketch.com -->
    <title>All Apps - Empty</title>
    <desc>Created with Sketch.</desc>
    <defs>
        <rect id="path-1" x="0" y="0" width="32" height="32" rx="3.2"></rect>
        <mask id="mask-2" maskContentUnits="userSpaceOnUse" maskUnits="objectBoundingBox" x="0" y="0" width="32" height="32" fill="white">
            <use xlink:href="#path-1"></use>
        </mask>
        <rect id="path-3" x="0" y="0" width="32" height="32" rx="3.2"></rect>
        <mask id="mask-4" maskContentUnits="userSpaceOnUse" maskUnits="objectBoundingBox" x="0" y="0" width="32" height="32" fill="white">
            <use xlink:href="#path-3"></use>
        </mask>
        <rect id="path-5" x="0" y="0" width="32" height="32" rx="3.2"></rect>
        <mask id="mask-6" maskContentUnits="userSpaceOnUse" maskUnits="objectBoundingBox" x="0" y="0" width="32" height="32" fill="white">
            <use xlink:href="#path-5"></use>
        </mask>
        <rect id="path-7" x="0" y="0" width="32" height="32" rx="3.2"></rect>
        <mask id="mask-8" maskContentUnits="userSpaceOnUse" maskUnits="objectBoundingBox" x="0" y="0" width="32" height="32" fill="white">
            <use xlink:href="#path-7"></use>
        </mask>
        <rect id="path-9" x="0" y="0" width="32" height="32" rx="3.2"></rect>
        <mask id="mask-10" maskContentUnits="userSpaceOnUse" maskUnits="objectBoundingBox" x="0" y="0" width="32" height="32" fill="white">
            <use xlink:href="#path-9"></use>
        </mask>
        <rect id="path-11" x="0" y="0" width="32" height="32" rx="3.2"></rect>
        <mask id="mask-12" maskContentUnits="userSpaceOnUse" maskUnits="objectBoundingBox" x="0" y="0" width="32" height="32" fill="white">
            <use xlink:href="#path-11"></use>
        </mask>
        <rect id="path-13" x="0" y="0" width="32" height="32" rx="3.2"></rect>
        <mask id="mask-14" maskContentUnits="userSpaceOnUse" maskUnits="objectBoundingBox" x="0" y="0" width="32" height="32" fill="white">
            <use xlink:href="#path-13"></use>
        </mask>
        <rect id="path-15" x="0" y="0" width="32" height="32" rx="3.2"></rect>
        <mask id="mask-16" maskContentUnits="userSpaceOnUse" maskUnits="objectBoundingBox" x="0" y="0" width="32" height="32" fill="white">
            <use xlink:href="#path-15"></use>
        </mask>
        <rect id="path-17" x="0" y="0" width="32" height="32" rx="3.2"></rect>
        <mask id="mask-18" maskContentUnits="userSpaceOnUse" maskUnits="objectBoundingBox" x="0" y="0" width="32" height="32" fill="white">
            <use xlink:href="#path-17"></use>
        </mask>
        <rect id="path-19" x="0" y="0" width="32" height="32" rx="3.2"></rect>
        <mask id="mask-20" maskContentUnits="userSpaceOnUse" maskUnits="objectBoundingBox" x="0" y="0" width="32" height="32" fill="white">
            <use xlink:href="#path-19"></use>
        </mask>
        <rect id="path-21" x="0" y="0" width="32" height="32" rx="3.2"></rect>
        <mask id="mask-22" maskContentUnits="userSpaceOnUse" maskUnits="objectBoundingBox" x="0" y="0" width="32" height="32" fill="white">
            <use xlink:href="#path-21"></use>
        </mask>
        <rect id="path-23" x="0" y="0" width="32" height="32" rx="3.2"></rect>
        <mask id="mask-24" maskContentUnits="userSpaceOnUse" maskUnits="objectBoundingBox" x="0" y="0" width="32" height="32" fill="white">
            <use xlink:href="#path-23"></use>
        </mask>
    </defs>
    <g id="All-Apps---Empty" stroke="none" stroke-width="1" fill="none" fill-rule="evenodd">
        <rect fill="#FFFFFF" opacity="0" x="0" y="0" width="400" height="300"></rect>
        <g id="Group" transform="translate(88.000000, 15.000000)">
            <rect id="Rectangle" fill="#F0F3F6" x="0" y="0" width="240" height="232" rx="32"></rect>
            <g id="Web-Copy" transform="translate(132.066667, 33.933333)"></g>
            <g id="Group-5" transform="translate(32.000000, 28.000000)">
                <g id="Group-3" transform="translate(96.000000, 0.000000)" stroke="#CCCCCC" stroke-dasharray="2" stroke-width="1.6">
                    <g id="Group-2">
                        <use id="Container" mask="url(#mask-2)" transform="translate(16.000000, 16.000000) scale(-1, 1) translate(-16.000000, -16.000000) " xlink:href="#path-1"></use>
                    </g>
                </g>
                <g id="Group-3" transform="translate(144.000000, 0.000000)">
                    <g id="Group-2">
                        <use id="Container" stroke="#CCCCCC" mask="url(#mask-4)" stroke-width="1.6" stroke-dasharray="2" transform="translate(16.000000, 16.000000) scale(-1, 1) translate(-16.000000, -16.000000) " xlink:href="#path-3"></use>
                        <g id="Group-4" transform="translate(8.000000, 8.000000)">
                            <rect id="Rectangle" fill="#DDE3E9" transform="translate(8.000000, 8.000000) scale(-1, 1) translate(-8.000000, -8.000000) " x="0" y="0" width="16" height="16" rx="8"></rect>
                            <path d="M3,13 L13,3" id="Line" stroke="#F7F9FA"></path>
                        </g>
                    </g>
                </g>
                <g id="Group-3" transform="translate(48.000000, 0.000000)">
                    <g id="Group-2">
                        <use id="Container" stroke="#CCCCCC" mask="url(#mask-6)" stroke-width="1.6" stroke-dasharray="2" transform="translate(16.000000, 16.000000) scale(-1, 1) translate(-16.000000, -16.000000) " xlink:href="#path-5"></use>
                        <g id="Group-4" transform="translate(8.000000, 8.000000)">
                            <rect id="Rectangle" fill="#DDE3E9" transform="translate(8.000000, 8.000000) scale(-1, 1) translate(-8.000000, -8.000000) " x="0" y="0" width="16" height="16" rx="8"></rect>
                            <path d="M3,13 L13,3" id="Line" stroke="#F7F9FA"></path>
                        </g>
                    </g>
                </g>
                <g id="Group-3">
                    <use id="Container" stroke="#CCCCCC" mask="url(#mask-8)" stroke-width="1.6" stroke-dasharray="2" transform="translate(16.000000, 16.000000) scale(-1, 1) translate(-16.000000, -16.000000) " xlink:href="#path-7"></use>
                    <g id="Group-4" transform="translate(8.000000, 8.000000)">
                        <rect id="Rectangle" fill="#DDE3E9" transform="translate(8.000000, 8.000000) scale(-1, 1) translate(-8.000000, -8.000000) " x="0" y="0" width="16" height="16" rx="8"></rect>
                        <path d="M3,13 L13,3" id="Line" stroke="#F7F9FA"></path>
                    </g>
                </g>
            </g>
            <g id="Group-5" transform="translate(32.000000, 92.000000)">
                <g id="Group-3" transform="translate(96.000000, 0.000000)" stroke="#CCCCCC" stroke-dasharray="2" stroke-width="1.6">
                    <g id="Group-2">
                        <use id="Container" mask="url(#mask-10)" transform="translate(16.000000, 16.000000) scale(-1, 1) translate(-16.000000, -16.000000) " xlink:href="#path-9"></use>
                    </g>
                </g>
                <g id="Group-3" transform="translate(144.000000, 0.000000)">
                    <g id="Group-2">
                        <use id="Container" stroke="#CCCCCC" mask="url(#mask-12)" stroke-width="1.6" stroke-dasharray="2" transform="translate(16.000000, 16.000000) scale(-1, 1) translate(-16.000000, -16.000000) " xlink:href="#path-11"></use>
                        <g id="Group-4" transform="translate(8.000000, 8.000000)">
                            <rect id="Rectangle" fill="#DDE3E9" transform="translate(8.000000, 8.000000) scale(-1, 1) translate(-8.000000, -8.000000) " x="0" y="0" width="16" height="16" rx="8"></rect>
                            <path d="M3,13 L13,3" id="Line" stroke="#F7F9FA"></path>
                        </g>
                    </g>
                </g>
                <g id="Group-3" transform="translate(48.000000, 0.000000)">
                    <g id="Group-2">
                        <use id="Container" stroke="#CCCCCC" mask="url(#mask-14)" stroke-width="1.6" stroke-dasharray="2" transform="translate(16.000000, 16.000000) scale(-1, 1) translate(-16.000000, -16.000000) " xlink:href="#path-13"></use>
                        <g id="Group-4" transform="translate(8.000000, 8.000000)">
                            <rect id="Rectangle" fill="#DDE3E9" transform="translate(8.000000, 8.000000) scale(-1, 1) translate(-8.000000, -8.000000) " x="0" y="0" width="16" height="16" rx="8"></rect>
                            <path d="M3,13 L13,3" id="Line" stroke="#F7F9FA"></path>
                        </g>
                    </g>
                </g>
                <g id="Group-3" stroke="#CCCCCC" stroke-dasharray="2" stroke-width="1.6">
                    <use id="Container" mask="url(#mask-16)" transform="translate(16.000000, 16.000000) scale(-1, 1) translate(-16.000000, -16.000000) " xlink:href="#path-15"></use>
                </g>
            </g>
            <g id="Group-5" transform="translate(32.000000, 156.000000)">
                <g id="Group-3" transform="translate(96.000000, 0.000000)">
                    <g id="Group-2">
                        <use id="Container" stroke="#CCCCCC" mask="url(#mask-18)" stroke-width="1.6" stroke-dasharray="2" transform="translate(16.000000, 16.000000) scale(-1, 1) translate(-16.000000, -16.000000) " xlink:href="#path-17"></use>
                        <g id="Group-4" transform="translate(8.000000, 8.000000)">
                            <rect id="Rectangle" fill="#DDE3E9" transform="translate(8.000000, 8.000000) scale(-1, 1) translate(-8.000000, -8.000000) " x="0" y="0" width="16" height="16" rx="8"></rect>
                            <path d="M3,13 L13,3" id="Line" stroke="#F7F9FA"></path>
                        </g>
                    </g>
                </g>
                <g id="Group-3" transform="translate(144.000000, 0.000000)" stroke="#CCCCCC" stroke-dasharray="2" stroke-width="1.6">
                    <g id="Group-2">
                        <use id="Container" mask="url(#mask-20)" transform="translate(16.000000, 16.000000) scale(-1, 1) translate(-16.000000, -16.000000) " xlink:href="#path-19"></use>
                    </g>
                </g>
                <g id="Group-3" transform="translate(48.000000, 0.000000)" stroke="#CCCCCC" stroke-dasharray="2" stroke-width="1.6">
                    <g id="Group-2">
                        <use id="Container" mask="url(#mask-22)" transform="translate(16.000000, 16.000000) scale(-1, 1) translate(-16.000000, -16.000000) " xlink:href="#path-21"></use>
                    </g>
                </g>
                <g id="Group-3" stroke="#CCCCCC" stroke-dasharray="2" stroke-width="1.6">
                    <use id="Container" mask="url(#mask-24)" transform="translate(16.000000, 16.000000) scale(-1, 1) translate(-16.000000, -16.000000) " xlink:href="#path-23"></use>
                </g>
            </g>
            <rect id="Rectangle" fill="#C2CFDD" x="16" y="68" width="208" height="8"></rect>
            <rect id="Rectangle" fill="#C2CFDD" x="16" y="132" width="208" height="8"></rect>
            <rect id="Rectangle" fill="#C2CFDD" x="16" y="196" width="208" height="8"></rect>
        </g>
        <g id="Object/Warning-Sign" transform="translate(301.000000, 168.000000)">
            <path d="M41.5591079,124 L39.2467832,107.866802 C38.8938809,105.404587 36.7847393,103.576189 34.2973619,103.576189 L26.7632441,103.576189 C24.2758667,103.576189 22.1667251,105.404587 21.8138228,107.866802 L19.5014981,124 L0,124 L7.38869224,7.49366677 C7.65588956,3.28044769 11.1509696,4.32822431e-15 15.3726528,0 L46.6273472,0 C50.8490304,1.00084621e-15 54.3441104,3.28044769 54.6113078,7.49366677 L62,124 L41.5591079,124 Z M21.2013986,10.4923077 C18.8308225,10.4923077 16.9090909,12.4140393 16.9090909,14.7846154 C16.9090909,17.1551915 18.8308225,19.0769231 21.2013986,19.0769231 L40.7986014,19.0769231 C43.1691775,19.0769231 45.0909091,17.1551915 45.0909091,14.7846154 C45.0909091,12.4140393 43.1691775,10.4923077 40.7986014,10.4923077 L21.2013986,10.4923077 Z" id="Sign" fill="#FFC06D"></path>
            <path d="M18.4414389,54.5788004 L30.135724,34.4858925 C30.413533,34.008566 31.0256913,33.8468252 31.5030178,34.1246342 C31.6526857,34.2117426 31.7771677,34.3362246 31.864276,34.4858925 L43.5585611,54.5788004 C43.8363701,55.0561269 43.6746293,55.6682852 43.1973028,55.9460942 C43.0445682,56.0349874 42.8710047,56.0818182 42.694285,56.0818182 L19.305715,56.0818182 C18.7534302,56.0818182 18.305715,55.6341029 18.305715,55.0818182 C18.305715,54.9050985 18.3525458,54.731535 18.4414389,54.5788004 Z M31,52.7845455 C31.6744568,52.7845455 32.2212121,52.2924657 32.2212121,51.6854545 C32.2212121,51.0784434 31.6744568,50.5863636 31,50.5863636 C30.3255432,50.5863636 29.7787879,51.0784434 29.7787879,51.6854545 C29.7787879,52.2924657 30.3255432,52.7845455 31,52.7845455 Z M30.3493304,48.9824718 C30.3714569,49.2612656 30.6133831,49.4872727 30.8861077,49.4872727 L31.1138923,49.4872727 C31.3882198,49.4872727 31.6280889,49.2653144 31.6503675,48.9824718 L32.1271892,42.9288589 C32.1765731,42.3018928 31.699608,41.7936364 31.0833391,41.7936364 L30.9120555,41.7936364 C30.2861691,41.7936364 29.8188514,42.2984373 29.8688849,42.9288589 L30.3493304,48.9824718 Z M20.1,63.0333333 L41.9,63.0333333 C42.7284271,63.0333333 43.4,63.7049062 43.4,64.5333333 L43.4,64.6333333 C43.4,65.4617605 42.7284271,66.1333333 41.9,66.1333333 L20.1,66.1333333 C19.2715729,66.1333333 18.6,65.4617605 18.6,64.6333333 L18.6,64.5333333 C18.6,63.7049062 19.2715729,63.0333333 20.1,63.0333333 Z" id="Symbol" fill="#FF9E1B"></path>
        </g>
        <g id="Group-6" transform="translate(82.000000, 14.000000)">
            <g id="Object/Word-Balloon" transform="translate(22.400000, 20.000000) scale(-1, 1) rotate(10.000000) translate(-22.400000, -20.000000) translate(3.200000, 4.000000)" fill="#FF5F14">
                <path d="M4.096,0 L34.304,0 C36.5661583,0 38.4,1.83384166 38.4,4.096 L38.4,21.504 C38.4,23.7661583 36.5661583,25.6 34.304,25.6 L4.096,25.6 C1.83384166,25.6 0,23.7661583 0,21.504 L0,4.096 C0,1.83384166 1.83384166,0 4.096,0 Z" id="Balloon"></path>
                <path d="M20.352,25.472 C21.8054993,27.2809191 23.6933033,28.7982832 26.015412,30.0240924 C29.4985749,31.8628063 33.9367866,32.3799902 34.2657621,32.0214649 C34.5947377,31.6629396 32.7196108,30.6358746 31.7598857,29.1236794 C31.120069,28.1155493 30.6978672,26.8983228 30.4932805,25.472 L20.352,25.472 Z" id="Caret"></path>
            </g>
            <text id="#!" transform="translate(21.414326, 16.863751) rotate(-10.000000) translate(-21.414326, -16.863751) " font-family="Arial, sans-serif" font-size="22.4" font-weight="bold" fill="#FFFFFF">
                <tspan x="10.4143264" y="25.3637511">#!</tspan>
            </text>
        </g>
        <g id="humaaan-11" transform="translate(-14.000000, 34.000000)">
            <g id="Head/Front/Curly" transform="translate(76.516367, 36.198176) rotate(-7.000000) translate(-76.516367, -36.198176) translate(35.694200, 4.949619)">
                <g id="Head" stroke-width="1" transform="translate(32.520715, 18.559678)" fill="#B28B67">
                    <path d="M4.97583428,20.6492146 C2.20078778,17.4109992 0.322578265,13.4425217 0.636428178,8.99572865 C1.54071717,-3.81672032 19.4814321,-0.998144794 22.9712726,5.4684792 C26.4611131,11.9351032 26.0464293,28.3382312 21.5361214,29.4939973 C19.7374169,29.9549152 15.9056413,28.8258509 12.0057878,26.4890348 L14.4536509,43.7050485 L0,43.7050485 L4.97583428,20.6492146 Z"></path>
                </g>
                <path d="M61.8951704,15.0635364 C61.5958653,14.0176453 60.7908103,13.1221447 59.7058639,12.8564747 C59.4427659,12.792033 59.1710529,12.7660046 58.9003324,12.7768563 C58.803224,12.7807095 58.7759892,12.8085464 58.7306111,12.7410379 C58.6969447,12.6909864 58.6961904,12.5687082 58.6823347,12.5098889 C58.6392196,12.3269828 58.5853057,12.1463572 58.518767,11.9704103 C58.2917572,11.3703037 57.9102712,10.8391998 57.4503759,10.3918033 C56.5901763,9.55480742 55.4278925,8.97715128 54.2203497,8.87264475 C53.5594487,8.81547676 52.9033515,8.92222441 52.2785386,9.13595561 C51.9550556,9.24659571 51.6413787,9.38436504 51.3358802,9.53668194 C51.2438932,9.58252642 50.9454615,9.80706999 50.8531569,9.79252243 C50.751205,9.7764808 50.5463086,9.5246114 50.4634131,9.46138848 C49.4387723,8.6798699 48.1734647,8.37260182 46.8971996,8.38179013 C45.4566522,8.39257523 44.0695024,8.4641335 42.8680736,9.33714445 C42.6137495,9.52197711 42.3715343,9.72434548 42.1409117,9.93740828 C42.0194667,10.0495818 41.9018329,10.1659623 41.7896381,10.2871788 C41.721948,10.3603098 41.6560445,10.4350921 41.5926025,10.5118797 C41.4849336,10.642218 41.5022035,10.685035 41.3514989,10.5940931 C40.7732949,10.2448729 40.1032626,10.0815471 39.4283869,10.1639964 C39.0276459,10.2129863 38.6377433,10.3325908 38.2675323,10.490019 C38.141482,10.5436091 37.84972,10.7573796 37.7153721,10.7594634 C37.5820962,10.761508 37.2944234,10.5633466 37.1571376,10.5129806 C36.4156438,10.2408625 35.6164248,10.1737865 34.8370563,10.2995246 C34.0331129,10.4292731 33.2433824,10.7481399 32.562234,11.1887738 C32.2346221,11.4007357 31.9487755,11.6355805 31.7191852,11.9507514 C31.620052,12.0868301 31.5304471,12.2307723 31.4180935,12.3569429 C31.3523091,12.430821 31.2220504,12.5066255 31.1867563,12.6001231 C31.2078772,12.5441347 30.30754,12.1990822 30.22258,12.177025 C29.76995,12.0595043 29.3090622,12.0833308 28.8658412,12.2283346 C28.0324001,12.5010031 27.3156399,13.1124725 26.7265578,13.7393938 C26.4239972,14.061406 26.1592318,14.4173494 25.934485,14.796569 C25.8267764,14.9782169 25.7282785,15.1650548 25.6381574,15.3558637 C25.5944864,15.4482997 25.5655444,15.5639332 25.5080178,15.6472081 C25.4338565,15.7545062 25.3840319,15.7565507 25.2497237,15.8033388 C24.5676224,16.0408966 23.9458268,16.442999 23.4723141,16.9863308 C22.9933623,17.536032 22.6825836,18.2129654 22.5522852,18.9258352 C22.5446229,18.9678266 22.5400573,19.1418469 22.5153237,19.1645725 C22.4814191,19.1958694 22.3442525,19.1820296 22.2923634,19.1880845 C22.1126771,19.2090409 21.9342612,19.2402198 21.7582274,19.2816607 C21.4337121,19.3580158 21.1178517,19.4703858 20.8190627,19.6173555 C19.6543174,20.1902542 18.8213924,21.2642967 18.4137435,22.4728452 C17.9860059,23.7411567 17.9935888,25.1942221 18.5048173,26.4388643 C18.5873952,26.6398958 18.685655,26.8350298 18.8010655,27.0196265 C18.8719316,27.1329402 18.8947994,27.1332154 18.848786,27.2521123 C18.7974924,27.3843771 18.7037983,27.5129068 18.6428971,27.6421442 C18.4441941,28.0639055 18.3052806,28.5112233 18.2175416,28.9680954 C18.0735861,29.7175307 18.0022436,30.5051042 18.1442537,31.2602406 C18.2101969,31.6108762 18.3250913,31.9536482 18.5003708,32.2659489 C18.5897376,32.4251857 18.6943098,32.5762051 18.8123803,32.715901 C18.8736785,32.7884423 18.938788,32.8577201 19.006875,32.9240884 C19.0458216,32.9619907 19.096877,32.9951749 19.1299875,33.0375201 C19.2108186,33.1407685 19.2278106,33.0558815 19.1861246,33.2074907 C19.1278437,33.4194526 18.9957191,33.6285836 18.9148086,33.8348444 C18.8314367,34.0473961 18.7560844,34.2628573 18.6871636,34.4804416 C18.5475752,34.9210361 18.4295444,35.3696121 18.3557404,35.8258944 C18.2140082,36.7019328 18.2389007,37.6353751 18.6557205,38.4393835 C18.8339379,38.7832957 19.0896117,39.0849806 19.3997155,39.3196682 C19.5514921,39.434476 19.7158935,39.5334387 19.8883543,39.6147084 C19.9769667,39.6565425 20.0901143,39.6744714 20.1305298,39.7596729 C20.174042,39.8512832 20.1094486,40.0332064 20.0947196,40.1356291 C19.9665651,41.0266476 19.9022893,41.9621737 20.1687221,42.8353419 C20.4141134,43.6395862 20.9544031,44.3496644 21.6558784,44.8197865 C23.0167064,45.7317614 24.8510472,45.6803338 26.2809151,44.9502428 C26.6536272,44.7599056 27.0023203,44.5236061 27.3133769,44.2448827 C28.1054497,45.3048887 29.7353705,45.2713507 30.8930093,44.9693119 C32.3352639,44.5930412 33.4925453,43.5960614 34.1593221,42.2861518 C35.0710534,43.3895254 36.9844784,43.0315374 37.6167154,41.8345483 C37.7714695,41.5415919 37.863258,41.2187147 37.9084376,40.8919843 C37.9322185,40.7201658 37.9170527,40.5468533 37.9349181,40.3764109 C37.9577065,40.1592197 38.103647,39.9481621 38.187535,39.7380482 C38.3509042,39.3291438 38.4523401,38.9067533 38.4567072,38.465687 C38.4589701,38.2354031 38.4296311,38.0109774 38.4075971,37.7825414 C38.3877864,37.5769097 38.4451542,37.3853143 38.4777486,37.1823562 C38.1078553,37.2429055 37.6572103,37.1437462 37.3087157,37.0371165 C36.9667321,36.932492 36.6464252,36.656914 36.4050436,36.4052412 C35.8445859,35.8208224 35.5022053,35.0547164 35.2680493,34.2922276 C34.7540417,32.6187076 34.9647344,30.6108689 36.6579384,29.6924067 C37.4467161,29.2645511 39.8097943,29.2659545 40.7492634,29.4774153 C41.7370741,29.6997571 42.8569176,31.8665987 42.9120225,32.0702645 C42.9461255,32.1963172 42.9289748,32.35233 43.0454572,32.4363126 C43.3014487,32.620988 43.7236281,32.3005092 43.9124456,32.142334 C44.238271,31.8693509 44.4706801,31.5061337 44.6719637,31.1379625 C45.1105396,30.3358807 45.4641159,29.4757267 45.7138743,28.5976437 C45.9064238,27.920671 46.0295363,27.2225846 46.2812003,26.5628724 C46.5316336,25.9064235 46.9264195,25.319685 47.5402352,24.9478179 C48.2079648,24.5432777 48.9733586,24.3302149 49.7063962,24.0759865 C50.4330022,23.8240384 51.1470627,23.5161019 51.7102995,22.9814987 C51.8341266,22.8639387 51.9544204,22.7390263 52.0541094,22.6006278 C52.1327966,22.4913639 52.2105706,22.2821935 52.3304674,22.2129157 C52.5168631,22.1051458 52.7888938,22.3854026 52.9500794,22.4871569 C53.7452886,22.9892443 54.4087305,23.6894931 54.9438193,24.454459 C55.4759306,25.2152571 55.9125533,25.947314 56.2673603,26.7968522 C56.5305376,27.4269189 56.6947882,28.2338367 57.1576611,28.7501965 C57.3643043,28.9807557 58.9003324,29.1202377 59.3978642,28.9189482 C59.895396,28.7176587 60.4529952,28.1949908 60.6199773,27.8674348 C60.7909294,27.5321725 60.8317816,27.1638833 60.7587319,26.7968522 C60.7157756,26.5809192 60.6280365,26.3792193 60.5800382,26.1671394 C60.5396226,25.9889908 60.502939,25.8205929 60.4157161,25.657385 C60.2504015,25.3481117 59.9679693,25.1258093 59.6273752,25.0328621 C59.9818249,24.7079797 60.2755322,24.3193239 60.4787611,23.884863 C60.6899303,23.4334954 60.868902,22.8845805 60.9196794,22.3891771 C60.9609684,21.9867994 60.8972484,21.5699135 60.6756776,21.224114 C60.4432288,20.8613686 60.031451,20.6247152 59.6751751,20.3984416 C60.2193951,19.9751469 60.6851662,19.4603598 61.0680814,18.89041 C61.8127513,17.7820431 62.2733613,16.3849267 61.8951704,15.0635364 Z" id="hair" fill="#051E36"></path>
            </g>
            <g id="Bottom/Standing/Sweatpants" transform="translate(0.000000, 117.355509)">
                <polygon id="Leg" fill="#997659" points="76.7677744 9.9475983e-14 98.7370547 76.1300133 109.784997 140.817051 119.963065 140.817051 109.088791 9.9475983e-14"></polygon>
                <path d="M66.8945554,0 C68.4274984,39.5491469 67.822928,61.1203263 67.479837,64.7135383 C67.136746,68.3067502 65.1889931,92.3716747 51.9164189,134.49583 C52.7299035,138.709978 53.7001796,140.817051 54.8272474,140.817051 C56.0973447,140.817051 57.8092325,140.625644 59.9629105,140.242829 C77.5402522,99.8318995 86.4170853,70.0199761 88.4330733,64.7135383 C90.4490613,59.4071004 96.4031737,37.835921 105.095914,0 L66.8945554,0 Z" id="Leg" fill="#B28B67"></path>
                <path d="M76.2961556,1.13686838e-13 C82.010708,26.1965461 91.8944346,68.012888 105.947335,125.449026 L121.116793,125.449026 C122.23723,66.4963236 117.470942,27.6955832 109.216921,1.13686838e-13 L76.2961556,1.13686838e-13 Z" id="Pant" fill="#B3A181"></path>
                <path d="M66.8179024,0 C68.3192196,39.5491469 64.4284608,78.5125475 52.3763181,126.064786 L68.5612952,126.064786 C86.170952,86.2569766 98.7923601,47.4858461 107.418254,0 L66.8179024,0 Z" id="Pant" fill="#9B8A6C"></path>
                <g id="Accessories/Shoe/Flat-Simple" transform="translate(50.378852, 120.020943)" fill="#E6E6E6">
                    <path d="M0,22.0497915 L0.598355434,12.5147466 C4.10164239,13.5275025 8.48958223,13.1302089 13.762175,11.3228659 C19.2214776,15.1451584 26.0416753,17.8000345 34.2227681,19.2874943 C35.3561347,19.4935639 36.1078617,20.5793885 35.9017965,21.712756 C35.8894168,21.7808449 35.873656,21.8482755 35.8545727,21.9147975 L35.3029706,23.8376125 L13.762175,23.8376125 L1.19671087,23.8376125 L0,22.0497915 Z" id="Shoe"></path>
                </g>
                <g id="Accessories/Shoe/Flat-Simple" transform="translate(106.755186, 120.020943)" fill="#E6E6E6">
                    <path d="M0,22.0497915 L0.598355434,12.5147466 C4.10164239,13.5275025 8.48958223,13.1302089 13.762175,11.3228659 C19.2214776,15.1451584 26.0416753,17.8000345 34.2227681,19.2874943 C35.3561347,19.4935639 36.1078617,20.5793885 35.9017965,21.712756 C35.8894168,21.7808449 35.873656,21.8482755 35.8545727,21.9147975 L35.3029706,23.8376125 L13.762175,23.8376125 L1.19671087,23.8376125 L0,22.0497915 Z" id="Shoe"></path>
                </g>
            </g>
            <g id="Body/Hoodie" transform="translate(89.448571, 111.045705) rotate(-10.000000) translate(-89.448571, -111.045705) translate(12.606846, 54.858397)">
                <path d="M114.758763,55.2343493 L133.94622,69.2650009 C139.150253,70.663345 143.498055,72.4031212 146.989625,74.4843296 C147.814394,75.2327187 148.811206,76.748331 145.390687,76.4863953 C141.970169,76.2244595 138.360467,76.1021304 137.888502,77.2639211 C137.416537,78.4257118 139.486449,79.8150862 138.532402,81.3826461 C137.896371,82.4276861 134.891504,79.8072871 129.5178,73.5214494 L110.517185,65.6754329 L114.758763,55.2343493 Z M41.0886038,55.7185816 L53.6588087,55.7678069 C45.8972872,80.7182047 41.7072189,93.9567295 41.0886038,95.4833812 C39.6967199,98.9183477 42.6421335,104.149742 43.9017092,106.961054 C39.799313,108.789052 40.2364277,102.01923 35.0613652,104.416751 C30.3378081,106.605097 26.74461,110.570234 21.2872223,107.216987 C20.6162685,106.804725 19.8810125,105.252484 21.657484,104.03949 C26.0833222,101.017479 32.4612232,95.7284161 33.322978,93.9874799 C34.4981347,91.6134025 37.0866767,78.8571031 41.0886038,55.7185816 Z" id="Skin" fill="#B28B67"></path>
                <path d="M73.838593,5.74882582 L78.9427897,4.41046049 C99.6150442,19.2667182 110.29127,50.3478427 135.329311,65.1170442 L130.269813,72.614476 C88.9469325,71.150622 75.4234488,33.2829494 73.838593,5.74882582 Z" id="Coat-Back" fill="#5900CB" transform="translate(104.583952, 38.512468) rotate(5.000000) translate(-104.583952, -38.512468) "></path>
                <path d="M54.136825,68.2855914 C74.9925892,68.2855914 90.3336522,68.2855914 100.160014,68.2855914 C102.263039,68.2855914 101.866764,65.2616402 101.562759,63.7357378 C98.054174,46.12498 84.3579882,27.1414354 84.3579882,2.07296505 L71.082734,0 C60.1023933,17.5855805 56.3052011,39.2369906 54.136825,68.2855914 Z" id="Shirt" fill="#E1E7EE"></path>
                <path d="M54.5066645,17.2858137 C52.5786004,16.7339163 51.0517732,15.4467193 49.926183,13.4242226 C45.074054,4.70576124 46.8263849,-0.0943975136 52.011772,-1.6722368 C57.1971591,-3.25007609 61.8214385,-1.24344979e-14 70.0831464,-4.4408921e-15 C70.5325144,-3.99680289e-15 70.944085,0.0280525202 71.3178581,0.0841575606 L75.473704,0.32030731 C87.3972787,40.5611588 90.6857295,67.4092284 85.3390563,80.8645162 L49.1152218,80.8645162 C46.9689982,85.8480891 44.9152432,90.041064 42.953957,93.4434409 L33.0836153,93.4434409 C32.1546774,63.5338073 39.2956938,38.1479316 54.5066645,17.2858137 Z" id="Coat-Front" fill="#8B46E1"></path>
                <path d="M57.0032065,60.1977219 C58.1424391,69.6896528 59.9940732,76.5785843 62.5581089,80.8645162 L49.1152218,80.8645162 C51.6187318,75.0513176 54.2480601,68.1623861 57.0032065,60.1977219 Z" id="Shade" fill-opacity="0.1" fill="#000000"></path>
            </g>
        </g>
    </g>
</svg>
