<?xml version="1.0" encoding="UTF-8"?>
<svg width="388px" height="280px" viewBox="0 0 388 280" version="1.1" xmlns="http://www.w3.org/2000/svg" xmlns:xlink="http://www.w3.org/1999/xlink">
    <!-- Generator: Sketch 59 (86127) - https://sketch.com -->
    <title>Loading Content</title>
    <desc>Created with Sketch.</desc>
    <defs>
        <rect id="path-1" x="0" y="0" width="32" height="32" rx="3.2"></rect>
        <mask id="mask-2" maskContentUnits="userSpaceOnUse" maskUnits="objectBoundingBox" x="0" y="0" width="32" height="32" fill="white">
            <use xlink:href="#path-1"></use>
        </mask>
        <rect id="path-3" x="0" y="0" width="32" height="32" rx="3.2"></rect>
        <mask id="mask-4" maskContentUnits="userSpaceOnUse" maskUnits="objectBoundingBox" x="0" y="0" width="32" height="32" fill="white">
            <use xlink:href="#path-3"></use>
        </mask>
        <rect id="path-5" x="0" y="0" width="32" height="32" rx="3.2"></rect>
        <mask id="mask-6" maskContentUnits="userSpaceOnUse" maskUnits="objectBoundingBox" x="0" y="0" width="32" height="32" fill="white">
            <use xlink:href="#path-5"></use>
        </mask>
        <rect id="path-7" x="0" y="0" width="32" height="32" rx="3.2"></rect>
        <mask id="mask-8" maskContentUnits="userSpaceOnUse" maskUnits="objectBoundingBox" x="0" y="0" width="32" height="32" fill="white">
            <use xlink:href="#path-7"></use>
        </mask>
        <rect id="path-9" x="0" y="0" width="32" height="32" rx="3.2"></rect>
        <mask id="mask-10" maskContentUnits="userSpaceOnUse" maskUnits="objectBoundingBox" x="0" y="0" width="32" height="32" fill="white">
            <use xlink:href="#path-9"></use>
        </mask>
        <rect id="path-11" x="0" y="0" width="32" height="32" rx="3.2"></rect>
        <mask id="mask-12" maskContentUnits="userSpaceOnUse" maskUnits="objectBoundingBox" x="0" y="0" width="32" height="32" fill="white">
            <use xlink:href="#path-11"></use>
        </mask>
    </defs>
    <g id="Final" stroke="none" stroke-width="1" fill="none" fill-rule="evenodd">
        <g id="Home---Onboarding" transform="translate(-487.000000, -501.000000)">
            <g id="Loading-Apps" transform="translate(483.000000, 486.000000)">
                <g id="Group" stroke-width="1" transform="translate(88.000000, 15.000000)">
                    <rect id="Rectangle" fill="#F0F3F6" x="0" y="0" width="240" height="232" rx="32"></rect>
                    <g id="Web-Copy" transform="translate(132.066667, 33.933333)"></g>
                    <g id="Group-3" transform="translate(36.000000, 28.000000)">
                        <g id="Web-Copy-3" transform="translate(0.000000, 4.000000)" fill="#DDE3E9">
                            <rect id="Label" transform="translate(12.000000, 17.500000) scale(-1, 1) translate(-12.000000, -17.500000) " x="0" y="16" width="24" height="3" rx="1.5"></rect>
                            <rect id="Label" transform="translate(12.000000, 22.500000) scale(-1, 1) translate(-12.000000, -22.500000) " x="0" y="21" width="24" height="3" rx="1.5"></rect>
                            <rect id="Rectangle" transform="translate(12.000000, 6.000000) scale(-1, 1) translate(-12.000000, -6.000000) " x="6" y="0" width="12" height="12" rx="1.6"></rect>
                        </g>
                        <g id="Web-Copy-3" transform="translate(44.000000, 0.000000)">
                            <rect id="Container" fill="#FFFFFF" transform="translate(16.000000, 16.000000) scale(-1, 1) translate(-16.000000, -16.000000) " x="4.54747351e-13" y="0" width="32" height="32" rx="3.2"></rect>
                            <rect id="Label" fill="#DDE3E9" transform="translate(16.000000, 21.500000) scale(-1, 1) translate(-16.000000, -21.500000) " x="4" y="20" width="24" height="3" rx="1.5"></rect>
                            <rect id="Label" fill="#DDE3E9" transform="translate(16.000000, 26.500000) scale(-1, 1) translate(-16.000000, -26.500000) " x="4" y="25" width="24" height="3" rx="1.5"></rect>
                            <rect id="Rectangle" fill="#DDE3E9" transform="translate(16.000000, 10.000000) scale(-1, 1) translate(-16.000000, -10.000000) " x="10" y="4" width="12" height="12" rx="1.6"></rect>
                        </g>
                        <g id="Web-Copy-3" transform="translate(140.000000, 0.000000)">
                            <rect id="Container" fill="#FFFFFF" transform="translate(16.000000, 16.000000) scale(-1, 1) translate(-16.000000, -16.000000) " x="4.54747351e-13" y="0" width="32" height="32" rx="3.2"></rect>
                            <rect id="Label" fill="#DDE3E9" transform="translate(16.000000, 21.500000) scale(-1, 1) translate(-16.000000, -21.500000) " x="4" y="20" width="24" height="3" rx="1.5"></rect>
                            <rect id="Label" fill="#DDE3E9" transform="translate(16.000000, 26.500000) scale(-1, 1) translate(-16.000000, -26.500000) " x="4" y="25" width="24" height="3" rx="1.5"></rect>
                            <rect id="Rectangle" fill="#DDE3E9" transform="translate(16.000000, 10.000000) scale(-1, 1) translate(-16.000000, -10.000000) " x="10" y="4" width="12" height="12" rx="1.6"></rect>
                        </g>
                        <g id="Group-2" transform="translate(92.000000, 0.000000)" stroke="#CCCCCC" stroke-dasharray="2" stroke-width="1.6">
                            <use id="Container" mask="url(#mask-2)" transform="translate(16.000000, 16.000000) scale(-1, 1) translate(-16.000000, -16.000000) " xlink:href="#path-1"></use>
                        </g>
                    </g>
                    <g id="Group-3" transform="translate(32.000000, 92.000000)">
                        <g id="Group-2" stroke="#CCCCCC" stroke-dasharray="2" stroke-width="1.6">
                            <use id="Container" mask="url(#mask-4)" transform="translate(16.000000, 16.000000) scale(-1, 1) translate(-16.000000, -16.000000) " xlink:href="#path-3"></use>
                        </g>
                        <g id="Group-2" transform="translate(96.000000, 0.000000)" stroke="#CCCCCC" stroke-dasharray="2" stroke-width="1.6">
                            <use id="Container" mask="url(#mask-6)" transform="translate(16.000000, 16.000000) scale(-1, 1) translate(-16.000000, -16.000000) " xlink:href="#path-5"></use>
                        </g>
                        <g id="Web-Copy-3" transform="translate(144.000000, 0.000000)">
                            <rect id="Container" fill="#FFFFFF" transform="translate(16.000000, 16.000000) scale(-1, 1) translate(-16.000000, -16.000000) " x="4.54747351e-13" y="0" width="32" height="32" rx="3.2"></rect>
                            <rect id="Label" fill="#DDE3E9" transform="translate(16.000000, 21.500000) scale(-1, 1) translate(-16.000000, -21.500000) " x="4" y="20" width="24" height="3" rx="1.5"></rect>
                            <rect id="Label" fill="#DDE3E9" transform="translate(16.000000, 26.500000) scale(-1, 1) translate(-16.000000, -26.500000) " x="4" y="25" width="24" height="3" rx="1.5"></rect>
                            <rect id="Rectangle" fill="#DDE3E9" transform="translate(16.000000, 10.000000) scale(-1, 1) translate(-16.000000, -10.000000) " x="10" y="4" width="12" height="12" rx="1.6"></rect>
                        </g>
                        <g id="Web-Copy-3" transform="translate(48.000000, 0.000000)">
                            <rect id="Container" fill="#FFFFFF" transform="translate(16.000000, 16.000000) scale(-1, 1) translate(-16.000000, -16.000000) " x="4.54747351e-13" y="0" width="32" height="32" rx="3.2"></rect>
                            <rect id="Label" fill="#DDE3E9" transform="translate(16.000000, 21.500000) scale(-1, 1) translate(-16.000000, -21.500000) " x="4" y="20" width="24" height="3" rx="1.5"></rect>
                            <rect id="Label" fill="#DDE3E9" transform="translate(16.000000, 26.500000) scale(-1, 1) translate(-16.000000, -26.500000) " x="4" y="25" width="24" height="3" rx="1.5"></rect>
                            <rect id="Rectangle" fill="#DDE3E9" transform="translate(16.000000, 10.000000) scale(-1, 1) translate(-16.000000, -10.000000) " x="10" y="4" width="12" height="12" rx="1.6"></rect>
                        </g>
                    </g>
                    <g id="Group-3" transform="translate(32.000000, 156.000000)">
                        <g id="Group-2" transform="translate(144.000000, 0.000000)" stroke="#CCCCCC" stroke-dasharray="2" stroke-width="1.6">
                            <use id="Container" mask="url(#mask-8)" transform="translate(16.000000, 16.000000) scale(-1, 1) translate(-16.000000, -16.000000) " xlink:href="#path-7"></use>
                        </g>
                        <g id="Group-2" stroke="#CCCCCC" stroke-dasharray="2" stroke-width="1.6">
                            <use id="Container" mask="url(#mask-10)" transform="translate(16.000000, 16.000000) scale(-1, 1) translate(-16.000000, -16.000000) " xlink:href="#path-9"></use>
                        </g>
                        <g id="Web-Copy-3" transform="translate(96.000000, 0.000000)">
                            <rect id="Container" fill="#FFFFFF" transform="translate(16.000000, 16.000000) scale(-1, 1) translate(-16.000000, -16.000000) " x="4.54747351e-13" y="0" width="32" height="32" rx="3.2"></rect>
                            <rect id="Label" fill="#DDE3E9" transform="translate(16.000000, 21.500000) scale(-1, 1) translate(-16.000000, -21.500000) " x="4" y="20" width="24" height="3" rx="1.5"></rect>
                            <rect id="Label" fill="#DDE3E9" transform="translate(16.000000, 26.500000) scale(-1, 1) translate(-16.000000, -26.500000) " x="4" y="25" width="24" height="3" rx="1.5"></rect>
                            <rect id="Rectangle" fill="#DDE3E9" transform="translate(16.000000, 10.000000) scale(-1, 1) translate(-16.000000, -10.000000) " x="10" y="4" width="12" height="12" rx="1.6"></rect>
                        </g>
                        <g id="Group-2" transform="translate(48.000000, 0.000000)" stroke="#CCCCCC" stroke-dasharray="2" stroke-width="1.6">
                            <use id="Container" mask="url(#mask-12)" transform="translate(16.000000, 16.000000) scale(-1, 1) translate(-16.000000, -16.000000) " xlink:href="#path-11"></use>
                        </g>
                    </g>
                    <rect id="Rectangle" fill="#C2CFDD" x="16" y="68" width="208" height="8"></rect>
                    <rect id="Rectangle" fill="#C2CFDD" x="16" y="132" width="208" height="8"></rect>
                    <rect id="Rectangle" fill="#C2CFDD" x="16" y="196" width="208" height="8"></rect>
                </g>
                <g id="humaaans/sitting/4" stroke-width="1" transform="translate(65.000000, 200.500000) scale(-1, 1) translate(-65.000000, -200.500000) translate(-31.000000, 64.000000)">
                    <g id="A-Human/Standing" transform="translate(96.000000, 136.500000) scale(-1, 1) translate(-96.000000, -136.500000) ">
                        <g id="Head/Front/Curly" transform="translate(52.480000, 0.000000)">
                            <g id="Head" stroke-width="1" transform="translate(34.560000, 19.840000)" fill="#BA8B72">
                                <path d="M24.4117385,5.84571707 C28.1204174,12.758435 27.6797299,30.2931173 22.8865929,31.5286128 C20.9750405,32.0213412 16.9028025,30.8143044 12.7582743,28.3161366 L15.36,46.72 L0,46.72 L5.2878173,22.0736365 C2.33877605,18.6120441 0.3428077,14.3698209 0.676336854,9.61629049 C1.63733134,-4.08001317 20.7030596,-1.06700087 24.4117385,5.84571707 Z"></path>
                            </g>
                            <path d="M65.7764479,16.1026802 C65.4583741,14.9846394 64.6028363,14.0273634 63.4498558,13.7433665 C63.1702598,13.6744793 62.8815084,13.6466554 62.5938117,13.6582557 C62.4906139,13.6623746 62.4616713,13.6921319 62.4134476,13.6199663 C62.3776701,13.5664621 62.3768685,13.4357487 62.362144,13.3728718 C62.3163252,13.1773481 62.2590306,12.9842621 62.1883194,12.7961777 C61.9470744,12.1546734 61.5416664,11.5869318 61.0529323,11.1086721 C60.138792,10.2139368 58.9036246,9.59643158 57.62036,9.48471576 C56.9180157,9.4236041 56.2207764,9.53771563 55.5567832,9.76619087 C55.2130155,9.88446337 54.8796688,10.0317366 54.5550133,10.1945609 C54.4572581,10.2435679 54.1401125,10.4836014 54.0420197,10.4680503 C53.9336747,10.4509021 53.7159298,10.1816577 53.6278362,10.1140734 C52.538943,9.27864252 51.1942914,8.95017784 49.8379952,8.96 C48.3071149,8.9715291 46.8329808,9.04802375 45.5562136,9.98125853 C45.2859416,10.1788417 45.0285377,10.3951703 44.7834534,10.622931 C44.6543929,10.7428427 44.5293826,10.8672516 44.4101524,10.9968301 C44.3382177,11.075006 44.2681815,11.1549471 44.2007612,11.2370318 C44.0863407,11.3763613 44.1046936,11.422132 43.9445387,11.3249166 C43.330077,10.9516058 42.6180289,10.7770131 41.9008336,10.8651501 C41.4749632,10.9175195 41.0606109,11.0453748 40.667185,11.2136631 C40.5332303,11.27095 40.2231728,11.4994673 40.0804003,11.5016949 C39.938767,11.5038804 39.633055,11.2920491 39.4871605,11.2382086 C38.6991695,10.9473188 37.8498337,10.8756155 37.0215931,11.0100276 C36.1672366,11.1487267 35.3279843,11.4895902 34.6041229,11.9606208 C34.2559673,12.1872046 33.9521962,12.43825 33.7082088,12.7751627 C33.6028593,12.9206287 33.5076354,13.0745006 33.3882365,13.209375 C33.3183269,13.2883494 33.1799001,13.3693833 33.1423928,13.4693307 C33.1648381,13.4094799 32.2080432,13.0406244 32.1177557,13.0170456 C31.6367424,12.8914178 31.1469535,12.916888 30.6759394,13.0718947 C29.7902354,13.363373 29.0285292,14.017024 28.4025074,14.6871928 C28.080974,15.0314188 27.7996059,15.4119166 27.5607658,15.8172963 C27.4463032,16.011475 27.3416287,16.2112017 27.2458564,16.4151735 C27.1994469,16.5139861 27.16869,16.6375964 27.1075561,16.726616 C27.0287443,16.8413159 26.9757953,16.8435015 26.8330651,16.8935172 C26.108191,17.1474627 25.4474043,17.5773038 24.9441989,18.1581168 C24.4352134,18.7457386 24.1049466,19.4693696 23.9664776,20.2314161 C23.9583348,20.2763042 23.9534829,20.4623291 23.9271982,20.4866224 C23.8911676,20.5200783 23.7453996,20.5052838 23.6902567,20.5117564 C23.4993028,20.5341584 23.3096989,20.5674882 23.1226265,20.6117879 C22.7777618,20.6934102 22.4420946,20.813532 22.1245693,20.9706403 C20.8867861,21.5830598 20.0016306,22.7311942 19.5684191,24.0231132 C19.1138593,25.3789179 19.1219177,26.9322217 19.665204,28.2627243 C19.7529601,28.4776239 19.8573815,28.6862189 19.9800291,28.8835499 C20.055339,29.0046805 20.0796407,29.0049747 20.030742,29.1320735 C19.976232,29.2734625 19.8766625,29.4108587 19.8119424,29.5490114 C19.6007792,29.9998675 19.4531548,30.4780431 19.359914,30.9664321 C19.2069314,31.7675665 19.1311152,32.60947 19.2820304,33.4166988 C19.3521087,33.7915226 19.4742079,34.1579404 19.6604787,34.4917849 C19.7554494,34.6620065 19.866579,34.8234439 19.9920534,34.9727766 C20.0571954,35.050322 20.1263877,35.1243789 20.1987444,35.1953256 C20.2401332,35.2358425 20.2943901,35.2713159 20.3295769,35.3165822 C20.4154767,35.4269531 20.4335342,35.3362102 20.3892342,35.498278 C20.3272986,35.7248619 20.1868888,35.9484196 20.1009047,36.1689092 C20.0123048,36.3961235 19.9322273,36.6264481 19.8589847,36.8590423 C19.7106431,37.3300308 19.5852109,37.8095514 19.5067789,38.2973099 C19.356159,39.233781 19.3826124,40.2316159 19.8255699,41.091088 C20.0149628,41.4587247 20.2866692,41.7812211 20.6162188,42.0320983 C20.7775129,42.154826 20.9522235,42.2606156 21.1354988,42.3474917 C21.2296678,42.3922116 21.3499106,42.4113773 21.3928605,42.5024564 C21.4391012,42.6003864 21.3704574,42.7948593 21.3548047,42.9043475 C21.218614,43.8568321 21.1503076,44.8568946 21.4334477,45.7902975 C21.6942268,46.6500218 22.2683966,47.4090841 23.0138595,47.9116372 C24.4600214,48.8865237 26.4093886,48.8315484 27.9289196,48.0510928 C28.3250035,47.8476254 28.6955622,47.595025 29.0261243,47.2970741 C29.8678659,48.4302037 31.5999945,48.3943521 32.8302257,48.0714774 C34.3629201,47.66925 35.5927716,46.6034945 36.3013601,45.203222 C37.2702636,46.3827108 39.3036742,46.0000274 39.975557,44.7204651 C40.1400154,44.4072994 40.2375597,44.0621488 40.2855724,43.7128792 C40.3108445,43.529208 40.2947277,43.3439396 40.3137134,43.1617394 C40.3379308,42.9295656 40.4930228,42.7039484 40.5821712,42.4793399 C40.7557849,42.0422276 40.8635815,41.590699 40.8682224,41.1192061 C40.8706273,40.8730362 40.8394486,40.6331288 40.8160329,40.3889343 C40.7949798,40.1691173 40.855945,39.9643049 40.8905834,39.7473459 C40.497495,39.8120722 40.0185913,39.7060724 39.6482436,39.592087 C39.2848151,39.4802451 38.9444226,39.1856566 38.6879047,38.9166224 C38.0923022,38.291888 37.7284518,37.4729329 37.4796126,36.6578445 C36.9333729,34.8688783 37.1572776,32.7225308 38.9566578,31.7407093 C39.7948976,31.2833385 42.306158,31.2848387 43.3045387,31.510887 C44.3542922,31.7485668 45.5443581,34.0648859 45.6029184,34.2826014 C45.63916,34.4173497 45.6209337,34.5841249 45.7447205,34.673901 C46.0167645,34.8713161 46.4654177,34.5287293 46.6660754,34.3596425 C47.0123324,34.067828 47.2593152,33.6795546 47.4732208,33.2859854 C47.9392986,32.4285728 48.3150467,31.5090818 48.5804668,30.5704252 C48.7850905,29.8467521 48.915923,29.1005089 49.1833682,28.3952871 C49.4495056,27.6935537 49.8690473,27.0663395 50.5213538,26.6688195 C51.2309549,26.2363725 52.0443444,26.0086118 52.8233488,25.7368456 C53.5955183,25.4675172 54.3543556,25.138338 54.9529114,24.5668557 C55.0845034,24.4411859 55.2123405,24.3076565 55.3182807,24.1597108 C55.4019021,24.0429094 55.4845532,23.8193096 55.6119683,23.7452527 C55.8100525,23.6300484 56.0991414,23.9296384 56.2704346,24.0384121 C57.1155092,24.5751356 57.8205537,25.3236904 58.3891965,26.1414267 C58.954675,26.9547078 59.4186771,27.7372649 59.7957331,28.6454078 C60.0754136,29.318939 60.2499638,30.1815213 60.7418622,30.7335017 C60.9614635,30.9799658 62.5938117,31.1290698 63.1225424,30.9138946 C63.651273,30.6987193 64.2438378,30.1399956 64.4212908,29.7898434 C64.6029628,29.4314534 64.6463768,29.0377581 64.5687464,28.6454078 C64.5230963,28.4145788 64.4298555,28.1989648 64.3788472,27.9722548 C64.3358973,27.7818167 64.2969134,27.6018021 64.204221,27.4273355 C64.02854,27.0967273 63.7283971,26.8590895 63.3664453,26.7597305 C63.7431216,26.4124363 64.0552465,25.9969695 64.2712194,25.5325377 C64.4956304,25.0500329 64.6858249,24.4632517 64.7397865,23.9336733 C64.7836645,23.503538 64.7159489,23.0578936 64.480484,22.6882395 C64.2334589,22.3004704 63.7958597,22.0474917 63.4172426,21.8056088 C63.9955892,21.3531135 64.4905675,20.8028144 64.8974943,20.193547 C65.6888605,19.0087205 66.178354,17.5152254 65.7764479,16.1026802 Z" id="hair" fill="#051E36"></path>
                        </g>
                        <g id="Bottom/Sitting/Stool" transform="translate(0.000000, 119.680000)">
                            <path d="M108.16,32.64 L108.16,39.68 L98.0178213,39.68 L112.885179,109.926466 L109.369838,109.926466 L91.719973,43.3419016 L90.8798213,43.341 L90.88,110.72 L86.4,110.72 L86.3998213,43.341 L85.240027,43.3419016 L67.5901618,109.926466 L64.0748213,109.926466 L78.9408213,39.68 L67.84,39.68 L67.84,32.64 L108.16,32.64 Z" id="Combined-Shape" fill="#C2CFDD" fill-rule="evenodd"></path>
                            <path d="M191.461737,103.04 C178.843581,87.6314719 170.305835,76.2082781 165.848499,68.7704188 C158.216458,56.0349979 151.969997,44.7028254 149.99877,40.3739865 C145.298126,30.051315 160.820413,25.2176756 164.33346,30.032512 C169.650594,37.3199581 181.006108,60.2514991 198.4,98.8271352 C200.110397,102.547254 200.110397,104.926584 198.4,105.965125 C196.689603,107.003666 194.376849,106.028624 191.461737,103.04 Z" id="LegLower" fill="#B28B67" fill-rule="evenodd"></path>
                            <path d="M165.604843,98.56 L142.121726,39.4475372 C137.099155,28.6717294 161.354085,21.5885289 165.045295,26.603374 C173.425486,37.9886247 193.343261,82.9017873 195.84,86.2938339 L165.604843,98.56 Z" id="LegLower" fill="#B3A181" fill-rule="evenodd"></path>
                            <g id="Lower-Leg" stroke-width="1" fill-rule="evenodd" transform="translate(129.863469, 67.656120) rotate(39.000000) translate(-129.863469, -67.656120) translate(119.863469, 32.156120)" fill="#B28B67">
                                <path d="M1.15869555,67.1712214 C0.514448237,59.1068276 -0.682483422,31.189576 0.515095354,18.2677145 C0.859231466,14.5544898 1.22180196,10.9643971 1.58718583,7.59657169 C2.67323598,-2.41379706 21.2345778,-2.09736295 19.7605745,7.41298904 C16.0897239,31.0975242 9.62860827,64.2900289 9.16551587,67.1580482 C8.51647209,71.1776997 1.5635849,72.2394414 1.15869555,67.1712214 Z" id="LegLower"></path>
                            </g>
                            <g id="Accessories/Shoe/Flat-Sneaker" transform="translate(121.280000, 89.600000) rotate(30.000000) translate(-121.280000, -89.600000) translate(101.760000, 76.800000)" fill="#E6E6E6" fill-rule="evenodd">
                                <path d="M1.71400548,16.2572285 C0.998001828,18.1685815 0.64,19.5987151 0.64,20.5476293 C0.64,21.7017325 0.832265091,23.3858561 1.21679527,25.6 C2.55563595,25.6 14.5880226,25.6 37.3139551,25.6 C38.2519923,22.4988846 37.7105028,20.8246922 35.6894866,20.5774228 C33.6684704,20.3301534 31.9895779,20.1068889 30.6528092,19.9076293 L13.8751953,12.4280854 C13.5523606,12.2841641 13.1739802,12.429202 13.0300589,12.7520367 C13.0275968,12.7575595 13.0252131,12.7631169 13.0229085,12.7687073 L11.9444564,15.3847648 L11.9444564,15.3847648 C10.073524,16.2576974 8.55319716,16.6941637 7.38347593,16.6941637 C6.43309806,16.6941637 5.12061546,16.3103337 3.44602813,15.5426738 L3.44601351,15.5427057 C2.80341139,15.2481258 2.04367521,15.5302535 1.74909525,16.1728556 C1.73639815,16.2005533 1.72469411,16.2286955 1.71400548,16.2572285 Z" id="shoe"></path>
                            </g>
                            <g id="Accessories/Shoe/Flat-Sneaker" transform="translate(184.320000, 84.480000)" fill="#E6E6E6" fill-rule="evenodd">
                                <path d="M1.71400548,16.2572285 C0.998001828,18.1685815 0.64,19.5987151 0.64,20.5476293 C0.64,21.7017325 0.832265091,23.3858561 1.21679527,25.6 C2.55563595,25.6 14.5880226,25.6 37.3139551,25.6 C38.2519923,22.4988846 37.7105028,20.8246922 35.6894866,20.5774228 C33.6684704,20.3301534 31.9895779,20.1068889 30.6528092,19.9076293 L13.8751953,12.4280854 C13.5523606,12.2841641 13.1739802,12.429202 13.0300589,12.7520367 C13.0275968,12.7575595 13.0252131,12.7631169 13.0229085,12.7687073 L11.9444564,15.3847648 L11.9444564,15.3847648 C10.073524,16.2576974 8.55319716,16.6941637 7.38347593,16.6941637 C6.43309806,16.6941637 5.12061546,16.3103337 3.44602813,15.5426738 L3.44601351,15.5427057 C2.80341139,15.2481258 2.04367521,15.5302535 1.74909525,16.1728556 C1.73639815,16.2005533 1.72469411,16.2286955 1.71400548,16.2572285 Z" id="shoe"></path>
                            </g>
                            <path d="M133.671738,42.4000334 C114.153774,39.2203105 101.080377,37.0460282 94.4515472,35.8771866 C75.5567687,32.5455274 70.0468905,22.3778116 73.3046247,0.193426341 L108.117933,0.193426341 C112.724915,1.52383591 131.974672,9.75198751 165.867205,24.8778811 C171.96514,27.9049813 170.829504,36.8303989 169.71491,39.7709291 C169.669453,39.8908552 159.389503,57.5059295 138.875059,92.6161521 L110.396305,74.4739138 L133.725221,44.537848 C134.341316,43.2969519 134.323488,42.5843471 133.671738,42.4000334 Z" id="Leg-and-Butt" fill="#9B8A6C" fill-rule="evenodd"></path>
                            <path d="" id="Path-31" stroke="#DCDCDC" stroke-width="0.64" stroke-linecap="square"></path>
                        </g>
                        <g id="Body/Hoodie" transform="translate(14.080000, 52.480000)">
                            <path d="M43.717074,59.5327305 L57.0914047,59.5853255 C48.8333726,86.2436729 44.3752623,100.388425 43.717074,102.019582 C42.2361501,105.689685 45.3699841,111.279188 46.7101359,114.282946 C42.3453061,116.236077 42.8103834,109.002834 37.3042681,111.564475 C32.2785414,113.902622 28.4554836,118.139187 22.6489825,114.556398 C21.9351074,114.115915 21.1528165,112.457417 23.0429302,111.161389 C27.7518927,107.93251 34.537793,102.28139 35.454675,100.421281 C36.7050074,97.8846885 39.4591404,84.2551718 43.717074,59.5327305 L43.717074,59.5327305 Z M122.099971,59.0153507 L142.514864,74.0064538 C148.051804,75.5005199 152.677738,77.3593904 156.392666,79.5830653 C157.270197,80.3826846 158.330775,82.0020463 154.691443,81.7221801 L153.827475,81.6592867 C150.466506,81.4302279 147.17185,81.4096097 146.709337,82.5529305 C146.20718,83.7942502 148.409507,85.2787325 147.394428,86.9535979 C146.71771,88.0701748 143.520619,85.2703996 137.803155,78.5542723 L117.587055,70.1711662 L122.099971,59.0153507 Z" id="Skin" fill="#D4A181"></path>
                            <path d="M78.5483097,6.13139889 L83.9786786,4.70344966 C105.97984,20.5842152 117.351494,53.7960581 143.997839,69.5855103 L138.617427,77.5939452 C94.6491126,76.0138504 80.245321,35.5500172 78.5483097,6.13139889 Z" id="Coat-Back" fill="#5900CB" transform="translate(111.273074, 41.148697) rotate(5.000000) translate(-111.273074, -41.148697) "></path>
                            <path d="M57.6,72.96 C79.7899238,72.96 96.1123666,72.96 106.567328,72.96 C108.804886,72.96 108.383261,69.7290477 108.059808,68.0986915 C104.326776,49.2824104 89.7544347,28.9993699 89.7544347,2.21486739 L75.6299521,0 C63.9471904,18.7893804 59.9070888,41.9229119 57.6,72.96 Z" id="Shirt" fill="#E1E7EE"></path>
                            <path d="M74.56642,-4.4408921e-15 C75.0420086,-4.4408921e-15 75.4778055,0.0296569542 75.8738107,0.0889708627 L80.3018158,0.342233564 C92.988151,43.3377244 96.4869665,72.0236466 90.7982625,86.4 L90.7982625,86.4 L52.2568018,86.4008376 C49.9734126,91.7251873 47.788397,96.2049081 45.7017553,99.84 L45.7017553,99.84 L35.2,99.84 C34.211618,67.8823165 41.8097657,40.7582473 57.994443,18.4677926 C55.9427965,17.8800107 54.3178538,16.5045728 53.12,14.3431617 C47.9574765,5.0278885 49.8219053,-0.100859383 55.3390057,-1.78670777 C60.8561061,-3.47255616 65.7762043,-1.33226763e-14 74.56642,-4.4408921e-15 Z" id="Coat-Front" fill="#8B46E1"></path>
                            <path d="M66.56,86.4 L52.2568018,86.4008376 C54.9204496,80.1898104 57.7179643,72.8294138 60.6493457,64.3196477 C61.8619969,74.4606995 63.8320382,81.820843 66.56,86.4 Z" id="Shade" fill-opacity="0.1" fill="#000000"></path>
                        </g>
                    </g>
                </g>
                <g id="Plant/Floor/Large/Tall" transform="translate(337.644068, 178.000000) scale(-1, 1) translate(-337.644068, -178.000000) translate(283.000000, 74.000000)">
                    <path d="M109,60.8214785 C107.903086,61.8601822 108.53615,63.2094746 108.550791,64.6074559 C108.574677,66.8771565 108.195924,69.1282451 107.769572,71.3492467 C107.09587,74.8599723 106.092236,78.2734237 104.635479,81.5388203 C101.460431,88.6548621 96.0690371,95.5053528 89.6684507,99.9542504 C86.5086584,102.15085 83.4119212,102.898711 79.8081761,103.909942 C77.5318981,104.548803 77.3513857,105.7294 76.1431319,107.944112 C73.6276381,112.556883 71.1569427,117.153061 68.9385005,121.921467 C66.2895333,127.615445 63.7180251,133.3157 61.2923465,139.109914 C56.4043298,150.784614 52.0604192,162.710821 48.6110599,174.889141 C50.842714,170.014427 53.5103714,165.277295 56.374496,160.716445 C63.010917,150.149398 70.6269812,138.60901 80.9026231,130.269727 C79.8568142,128.72773 79.8277824,126.526647 81.8141232,125.06549 C86.0862339,121.920785 90.7104728,127.855781 86.8446528,131.000969 C84.7075358,132.739438 82.4733048,132.121017 81.2154936,130.672259 C80.3989736,131.670185 79.6347384,132.713614 78.9004077,133.594948 C76.6630896,136.280543 74.5484859,139.030236 72.5275376,141.844044 C68.3293298,147.68966 64.7315415,153.86543 60.9697978,159.92827 C57.2574487,165.911964 53.5747839,171.926306 50.2099606,178.061601 C48.7569855,180.711217 47.0574768,183.599103 45.6110328,186.548646 C44.6013384,190.924923 43.7179643,195.333578 42.9767889,199.774011 C42.9595293,197.285247 43.0616402,194.781458 43.2651443,192.273456 C42.9750292,193.214127 42.7424998,194.149264 42.5842294,195.073446 C42.8035178,193.283592 43.1135609,191.504029 43.5044008,189.736358 C44.4809412,180.656888 46.7049448,171.569887 49.3254655,162.987463 C51.9398172,154.423626 55.343212,146.168347 58.9732651,137.996639 C59.8529004,136.016947 61.1859079,133.470392 61.5594604,131.284725 C61.821022,129.753339 61.021351,128.280595 60.6552173,126.667399 C59.2278257,120.385312 59.3299888,113.347351 60.5834509,107.031675 C61.9654889,100.067443 65.962279,96.8351068 72.7233656,95.8486684 C75.1960303,95.4878392 78.3388508,95.6200855 80.6061625,94.5630003 C83.0763647,93.4118691 84.0953604,89.6281154 85.5000077,87.1992429 C89.2728428,80.6747784 93.755517,74.4174185 98.9028652,68.9200159 C100.328117,67.3977152 101.860843,65.9932895 103.486893,64.6915593 C104.51228,63.8702398 106.67838,62.8583754 107.377174,61.8466211 C107.516121,61.6456786 108.420443,60.2481835 107.965055,60.3374963 C108.892241,60.1556522 106.689768,61.8787847 109,60.8214785 Z M7.04321134,0 C8.10461506,1.78182143 9.14615961,3.57571803 10.1816794,5.37275825 C19.1868473,21.0312723 26.5869253,38.2317394 31.365209,55.6532113 C34.2602786,66.2086925 36.2848877,77.0401671 38.2964981,87.7933992 C41.4111139,104.443438 44.3571831,121.092193 45.1952003,138.037986 C46.0382994,155.081985 47.705471,174.740235 42.139179,191.156309 C44.9195697,174.489534 42.272449,156.74905 41.8037514,139.978837 C41.5797721,131.973009 40.9307215,124.045452 40.0792885,116.086406 C39.2530576,108.365704 37.9032301,100.681766 36.6462365,93.0217481 C36.0339316,89.2911811 35.3908735,85.5662271 34.7361511,81.8433106 C34.540694,80.7325739 34.4581288,77.4366305 33.7554007,76.6778373 C33.0481214,75.9140479 29.439489,75.602677 28.3065456,75.042254 C26.0251867,73.9134934 23.8792607,72.310171 21.9800605,70.6160554 C18.3392688,67.3684788 15.1719633,63.1251253 12.6720724,58.9421436 C6.88797318,49.2633821 4.57549315,37.4517687 4.69237524,26.2425314 C4.71483263,24.066204 8.2056286,0.630640064 6.80366879,0.307912963 C6.88807866,0.208794935 6.96792395,0.10645259 7.04321134,0 Z" id="Back-Leaves" fill="#B2E4E1"></path>
                    <path d="M0.747449569,95.5902067 C3.13812197,96.0589798 7.04445372,101.481349 9.01508067,103.547314 C11.3570384,106.002424 13.4817752,108.619221 15.4845897,111.360973 C19.7962393,117.262482 23.652252,123.537011 26.9311744,130.080246 C32.2766766,140.747028 36.5591189,151.69685 39.6670705,163.312378 C41.5695604,170.422663 42.8013438,177.792197 43.531365,185.110267 C43.6692326,186.490411 45.1124044,197.131061 43.0328822,197.417856 C41.1625713,197.676097 41.7402405,189.338192 41.6500115,188.204031 C40.630071,175.40858 37.5746184,162.958714 33.3245118,150.898361 C32.3987777,148.271127 31.538738,145.053235 30.0582706,142.688978 C28.9921268,140.986041 30.050625,141.57991 28.1770173,140.935431 C26.5682266,140.381712 24.7352385,140.517016 23.0878003,139.839218 C19.5089037,138.367657 16.6432342,135.510917 14.1312788,132.637373 C9.24966887,127.052892 5.38124131,121.011358 3.36479346,113.855671 C2.2462076,109.888076 1.2182843,105.897402 0.647849982,101.807121 C0.500288557,100.749903 -0.792364477,95.2882735 0.747449569,95.5902067 Z M77.7002951,40.6208107 C77.7718727,44.7431059 77.3716107,48.8392626 76.8773194,52.9269474 C75.9868046,60.2990704 73.0748993,66.8645062 69.0810053,73.1389413 C67.0258322,76.3675199 64.6152771,79.6352466 61.2765455,81.6497249 C59.7397241,82.577433 57.8905421,82.7327621 56.3728345,83.532058 C54.6052425,84.4625429 55.5678696,83.7103436 54.7712761,85.5571325 C53.6650373,88.121152 53.3111991,91.4290104 52.7993599,94.1649104 C50.4492449,106.724178 44.7596605,173.115741 45.7460163,185.890917 C45.8336204,187.023253 44.2588869,187.294033 44.1802753,185.911688 C43.762441,178.582109 47.3780561,127.824884 49.2021952,111.225812 C51.0263343,94.6267397 52.8722798,79.9622898 54.7232059,74.2195305 C56.968655,67.2523431 61.0240648,58.8737622 64.3999103,52.3765583 C65.9679651,49.3581041 67.6771758,46.4436338 69.6283328,43.6543498 C71.2701029,41.3071974 74.3167584,35.3462011 76.6275191,34.5074931 C78.1158626,33.9672876 77.6819149,39.5552994 77.7002951,40.6208107 Z" id="Front-Leaves" fill="#31B7B8"></path>
                    <path d="M35.0903012,186.455744 L52.0315626,186.455744 C54.7929863,186.455744 57.0315626,188.69432 57.0315626,191.455744 C57.0315626,191.69925 57.013774,191.942431 56.978339,192.183345 L56.23636,197.227872 C55.3262934,203.415184 50.0177866,208 43.7639034,208 L43.3579604,208 C37.1040772,208 31.7955704,203.415184 30.8855038,197.227872 L30.1435248,192.183345 C29.7416818,189.451316 31.6306708,186.910811 34.3627,186.508968 C34.6036141,186.473532 34.846795,186.455744 35.0903012,186.455744 Z" id="Base" fill="#B2E4E1"></path>
                </g>
                <g id="Web-Copy-3" stroke-width="1" transform="translate(216.000000, 43.000000)">
                    <rect id="Container" fill="#FFFFFF" transform="translate(16.000000, 16.000000) scale(-1, 1) translate(-16.000000, -16.000000) " x="4.54747351e-13" y="0" width="32" height="32" rx="3.2"></rect>
                    <rect id="Label" fill="#DDE3E9" transform="translate(16.000000, 26.500000) scale(-1, 1) translate(-16.000000, -26.500000) " x="4" y="25" width="24" height="3" rx="1.5"></rect>
                    <g id="Icons/Status/Favorite-(on)" transform="translate(8.000000, 6.000000)" fill="#FF9E1B">
                        <path d="M0.988295617,5.95549212 C0.442475019,6.03889637 0.313873291,6.42834766 0.696746826,6.82093777 L4,10.208021 L3.16963637,15.0174697 C3.07594879,15.5601062 3.39234161,15.7854683 3.87093353,15.5237751 L8,13.2660092 L12.1290665,15.5237751 C12.6100698,15.7867869 12.9248375,15.5646602 12.8303636,15.0174697 L12,10.208021 L15.3032532,6.82093777 C15.6880558,6.42636959 15.5663056,6.0402261 15.0118832,5.95549212 L10.473,5.26180145 L8.43423289,0.904535916 C8.20048782,0.404974524 7.81616315,0.412884734 7.58415708,0.904535916 L5.528,5.26180145 L0.988295617,5.95549212 Z" id="Favorite-(on)"></path>
                    </g>
                </g>
                <g id="Web-Copy-3" stroke-width="1" transform="translate(216.000000, 107.000000)">
                    <rect id="Container" fill="#FFFFFF" transform="translate(16.000000, 16.000000) scale(-1, 1) translate(-16.000000, -16.000000) " x="4.54747351e-13" y="0" width="32" height="32" rx="3.2"></rect>
                    <rect id="Label" fill="#DDE3E9" transform="translate(16.000000, 26.500000) scale(-1, 1) translate(-16.000000, -26.500000) " x="4" y="25" width="24" height="3" rx="1.5"></rect>
                    <g id="Icons/Status/Favorite-(on)" transform="translate(8.000000, 6.000000)" fill="#FF9E1B">
                        <path d="M0.988295617,5.95549212 C0.442475019,6.03889637 0.313873291,6.42834766 0.696746826,6.82093777 L4,10.208021 L3.16963637,15.0174697 C3.07594879,15.5601062 3.39234161,15.7854683 3.87093353,15.5237751 L8,13.2660092 L12.1290665,15.5237751 C12.6100698,15.7867869 12.9248375,15.5646602 12.8303636,15.0174697 L12,10.208021 L15.3032532,6.82093777 C15.6880558,6.42636959 15.5663056,6.0402261 15.0118832,5.95549212 L10.473,5.26180145 L8.43423289,0.904535916 C8.20048782,0.404974524 7.81616315,0.412884734 7.58415708,0.904535916 L5.528,5.26180145 L0.988295617,5.95549212 Z" id="Favorite-(on)"></path>
                    </g>
                </g>
                <g id="Web-Copy-3" stroke-width="1" transform="translate(176.000000, 183.000000)">
                    <rect id="Container" fill="#FFFFFF" transform="translate(16.000000, 16.000000) scale(-1, 1) translate(-16.000000, -16.000000) " x="4.54747351e-13" y="0" width="32" height="32" rx="3.2"></rect>
                    <rect id="Label" fill="#DDE3E9" transform="translate(16.000000, 26.500000) scale(-1, 1) translate(-16.000000, -26.500000) " x="4" y="25" width="24" height="3" rx="1.5"></rect>
                    <g id="Icons/Status/Favorite-(on)" transform="translate(8.000000, 6.000000)" fill="#FF9E1B">
                        <path d="M0.988295617,5.95549212 C0.442475019,6.03889637 0.313873291,6.42834766 0.696746826,6.82093777 L4,10.208021 L3.16963637,15.0174697 C3.07594879,15.5601062 3.39234161,15.7854683 3.87093353,15.5237751 L8,13.2660092 L12.1290665,15.5237751 C12.6100698,15.7867869 12.9248375,15.5646602 12.8303636,15.0174697 L12,10.208021 L15.3032532,6.82093777 C15.6880558,6.42636959 15.5663056,6.0402261 15.0118832,5.95549212 L10.473,5.26180145 L8.43423289,0.904535916 C8.20048782,0.404974524 7.81616315,0.412884734 7.58415708,0.904535916 L5.528,5.26180145 L0.988295617,5.95549212 Z" id="Favorite-(on)"></path>
                    </g>
                </g>
                <g id="Web-Copy-3" stroke-width="1" transform="translate(120.000000, 43.000000)">
                    <rect id="Container" fill="#FFFFFF" transform="translate(16.000000, 16.000000) scale(-1, 1) translate(-16.000000, -16.000000) " x="4.54747351e-13" y="0" width="32" height="32" rx="3.2"></rect>
                    <rect id="Label" fill="#DDE3E9" transform="translate(16.000000, 26.500000) scale(-1, 1) translate(-16.000000, -26.500000) " x="4" y="25" width="24" height="3" rx="1.5"></rect>
                    <g id="Icons/Status/Favorite-(on)" transform="translate(8.000000, 6.000000)" fill="#FF9E1B">
                        <path d="M0.988295617,5.95549212 C0.442475019,6.03889637 0.313873291,6.42834766 0.696746826,6.82093777 L4,10.208021 L3.16963637,15.0174697 C3.07594879,15.5601062 3.39234161,15.7854683 3.87093353,15.5237751 L8,13.2660092 L12.1290665,15.5237751 C12.6100698,15.7867869 12.9248375,15.5646602 12.8303636,15.0174697 L12,10.208021 L15.3032532,6.82093777 C15.6880558,6.42636959 15.5663056,6.0402261 15.0118832,5.95549212 L10.473,5.26180145 L8.43423289,0.904535916 C8.20048782,0.404974524 7.81616315,0.412884734 7.58415708,0.904535916 L5.528,5.26180145 L0.988295617,5.95549212 Z" id="Favorite-(on)"></path>
                    </g>
                </g>
            </g>
        </g>
    </g>
</svg>