<svg width="23" height="20" viewBox="0 0 23 20" fill="none" xmlns="http://www.w3.org/2000/svg">
<path d="M5.54875 20V17.9722L6.9 16.6667H1.725C1.265 16.6667 0.8625 16.5 0.5175 16.1667C0.1725 15.8333 0 15.4444 0 15V1.66667C0 1.22222 0.1725 0.833333 0.5175 0.5C0.8625 0.166667 1.265 0 1.725 0H13.1388V1.66667H1.725V15H21.275V11.1389H23V15C23 15.4444 22.8275 15.8333 22.4825 16.1667C22.1375 16.5 21.735 16.6667 21.275 16.6667H16.1L17.48 17.9722V20H5.54875ZM15.7262 13.7222L10.1775 8.36111L11.385 7.19445L14.8637 10.5278V0H16.5887V10.5278L20.0675 7.19445L21.275 8.36111L15.7262 13.7222Z" fill="#171717"/>
</svg>
